<svg width="235" height="139" xmlns="http://www.w3.org/2000/svg" xmlns:xlink="http://www.w3.org/1999/xlink"><svg width="234.56" height="69.56" viewBox="-1 -1 234.56 69.56" xmlns="http://www.w3.org/2000/svg"><path data-name="Goodness you can taste." d="M23.06 26.627V13.35h-9.63v4.062h4.89a5.574 5.574 0 01-5.91 5c-4.4 0-7.45-2.934-7.45-8.952 0-5.868 3.09-8.952 7.56-8.952 2.98 0 5.12 1.655 6.47 4.965l4.48-1.166A10.807 10.807 0 0012.52-.006 12.218 12.218 0 003.65 3.53C1.2 5.899 0 9.209 0 13.46s1.16 7.56 3.53 9.93a11.7 11.7 0 008.62 3.535 7.157 7.157 0 006.39-3.122l.42 2.821h4.1zm6.22-2.444a10.387 10.387 0 0014.07 0 10.795 10.795 0 000-14.03 10.281 10.281 0 00-14.07 0 10.795 10.795 0 000 14.03zm3.57-11.134a4.392 4.392 0 016.93 0 6.455 6.455 0 011.27 4.1 6.637 6.637 0 01-1.27 4.137 4.455 4.455 0 01-6.93 0 6.637 6.637 0 01-1.27-4.137 6.455 6.455 0 011.27-4.1zm18.23 11.134a10.387 10.387 0 0014.07 0 10.795 10.795 0 000-14.03 10.281 10.281 0 00-14.07 0 10.763 10.763 0 000 14.03zm3.57-11.134a4.382 4.382 0 016.92 0 6.4 6.4 0 011.28 4.1 6.582 6.582 0 01-1.28 4.137 4.444 4.444 0 01-6.92 0 6.643 6.643 0 01-1.28-4.137 6.46 6.46 0 011.28-4.1zm24.38-5.68c-5.57 0-8.65 3.8-8.65 9.78s3.08 9.779 8.65 9.779a5.5 5.5 0 004.59-2.256v1.955h4.66V-.003h-4.66v9.4a6.281 6.281 0 00-4.59-2.028zm-2.52 5.529a3.908 3.908 0 013.16-1.542 3.807 3.807 0 013.12 1.542 6.5 6.5 0 011.24 4.251 6.6 6.6 0 01-1.24 4.288 3.772 3.772 0 01-3.12 1.5 3.906 3.906 0 01-3.16-1.542 7.852 7.852 0 010-8.497zm16.66 13.729h4.66v-7.56c0-4.777 1.92-7.711 4.33-7.711 1.8 0 2.7 1.053 2.7 3.122v12.149h4.67v-13.54c0-3.724-2.33-5.718-5.83-5.718a6.937 6.937 0 00-5.87 3.348V7.675h-4.66v18.957zM131 16.735a10.579 10.579 0 00-2.03-6.206 8.139 8.139 0 00-6.81-3.16c-6.51 0-9.1 5.266-9.1 9.78s2.59 9.779 9.1 9.779a8.656 8.656 0 008.61-5.529l-3.76-1.392a5.148 5.148 0 01-4.59 2.934 4.345 4.345 0 01-4.47-4.288H131v-1.918zm-8.84-5.379q3.27 0 4.06 3.611h-8.16a4.147 4.147 0 014.1-3.611zm18.35-3.987a6.015 6.015 0 00-4.36 1.618 5.211 5.211 0 00-1.7 3.911c0 2.709 1.43 4.1 3.84 5.116.72.3 2.03.715 2.67 1.015a6.427 6.427 0 011.06.452 1.523 1.523 0 011.01 1.429c0 1.354-.79 2.031-2.33 2.031-1.77 0-3.05-1.053-3.8-3.122l-3.72 1.994a8.7 8.7 0 002.82 3.573 7.48 7.48 0 004.7 1.542 6.546 6.546 0 004.85-1.843 6.084 6.084 0 001.88-4.476 4.845 4.845 0 00-1.16-3.084 4.294 4.294 0 00-1.36-.978 12.694 12.694 0 00-1.35-.715l-1.62-.564-1.35-.489c-1.21-.451-1.81-1.053-1.81-1.843a1.581 1.581 0 011.73-1.58 3.922 3.922 0 013.16 1.655l2.78-2.557a7.066 7.066 0 00-5.94-3.085zm16.6 0a6.031 6.031 0 00-4.36 1.618 5.2 5.2 0 00-1.69 3.911c0 2.709 1.43 4.1 3.83 5.116.72.3 2.04.715 2.67 1.015a6.427 6.427 0 011.06.452 1.523 1.523 0 011.01 1.429c0 1.354-.79 2.031-2.33 2.031-1.77 0-3.05-1.053-3.8-3.122l-3.72 1.994a8.7 8.7 0 002.82 3.573 7.521 7.521 0 004.7 1.542 6.53 6.53 0 004.85-1.843 6.046 6.046 0 001.88-4.476 4.845 4.845 0 00-1.16-3.084 4.179 4.179 0 00-1.36-.978 12.694 12.694 0 00-1.35-.715l-1.62-.564-1.35-.489c-1.2-.451-1.81-1.053-1.81-1.843a1.581 1.581 0 011.73-1.58 3.922 3.922 0 013.16 1.655l2.79-2.557a7.1 7.1 0 00-5.95-3.085zm24.79 18.055l-3.27 8.877h4.51l9.78-26.631h-4.66l-4.14 11.886-4.4-11.886h-4.7zm14.12-1.241a10.387 10.387 0 0014.07 0 10.795 10.795 0 000-14.03 10.281 10.281 0 00-14.07 0 10.795 10.795 0 000 14.03zm3.57-11.134a4.392 4.392 0 016.93 0 6.455 6.455 0 011.27 4.1 6.637 6.637 0 01-1.27 4.137 4.455 4.455 0 01-6.93 0 6.637 6.637 0 01-1.27-4.137 6.455 6.455 0 011.27-4.1zm32.98-5.379h-4.66v7.561c0 4.776-1.92 7.71-4.33 7.71-1.8 0-2.7-1.053-2.7-3.122V7.675h-4.67v13.541c0 3.724 2.33 5.717 5.83 5.717a6.936 6.936 0 005.87-3.347v3.046h4.66V7.675zM49.83 60.443c-1.02 2.069-2.52 3.122-4.44 3.122-2.86 0-4.36-2.332-4.36-5.792s1.5-5.793 4.36-5.793c1.92 0 3.42 1.053 4.44 3.122l4.18-1.693c-1.47-3.61-4.33-5.416-8.62-5.416a8.581 8.581 0 00-6.84 2.783 11.361 11.361 0 000 13.993 8.581 8.581 0 006.84 2.783c4.29 0 7.15-1.805 8.62-5.416zm11.13-6.281a3.082 3.082 0 013.27-2.182c2.22 0 3.31.94 3.31 2.784v.827h-3.16c-4.82 0-8.09 2.445-8.09 6.206a5.392 5.392 0 005.76 5.755 7.169 7.169 0 005.83-2.708l.49 2.407h3.83V55.93c0-5.3-2.67-7.937-7.97-7.937-3.8 0-6.62 2.106-7.22 5.266zm.22 7.56c0-1.617 1.09-2.445 3.24-2.445h3.12v.376a3.408 3.408 0 01-1.36 2.821 4.636 4.636 0 01-3.04 1.091 1.812 1.812 0 01-1.96-1.843zm15.4 5.529h4.67v-7.56c0-4.777 1.91-7.711 4.32-7.711 1.81 0 2.71 1.053 2.71 3.122v12.149h4.66V53.71c0-3.723-2.33-5.717-5.83-5.717a6.919 6.919 0 00-5.86 3.348v-3.047h-4.67v18.957zm40.96-4.137a3.744 3.744 0 01-1.8.451c-1.66 0-2.49-.827-2.49-3.084v-8.2h5.01v-3.987h-5.01v-7.673l-4.66 2.934v4.739h-2.93v3.987h2.93v8.275c0 4.627 2.6 7 6.96 7a7.182 7.182 0 003.08-.677zm7.44-8.952a3.082 3.082 0 013.27-2.182c2.22 0 3.31.94 3.31 2.784v.827h-3.16c-4.81 0-8.09 2.445-8.09 6.206a5.392 5.392 0 005.76 5.755 7.156 7.156 0 005.83-2.708l.49 2.407h3.84V55.93c0-5.3-2.68-7.937-7.98-7.937-3.8 0-6.62 2.106-7.22 5.266zm.22 7.56c0-1.617 1.1-2.445 3.24-2.445h3.12v.376a3.426 3.426 0 01-1.35 2.821 4.662 4.662 0 01-3.05 1.091 1.812 1.812 0 01-1.96-1.843zm20.95-13.729a6.018 6.018 0 00-4.36 1.617 5.205 5.205 0 00-1.69 3.912c0 2.708 1.43 4.1 3.83 5.116.72.3 2.03.714 2.67 1.015a6.427 6.427 0 011.06.452 1.523 1.523 0 011.01 1.429c0 1.354-.79 2.031-2.33 2.031-1.77 0-3.05-1.053-3.8-3.122l-3.72 1.994a8.71 8.71 0 002.82 3.573 7.48 7.48 0 004.7 1.542 6.55 6.55 0 004.85-1.843 6.084 6.084 0 001.88-4.476 4.845 4.845 0 00-1.16-3.084 4.278 4.278 0 00-1.36-.978 12.694 12.694 0 00-1.35-.715l-1.62-.564-1.35-.489c-1.21-.451-1.81-1.053-1.81-1.843a1.581 1.581 0 011.73-1.58 3.922 3.922 0 013.16 1.655l2.78-2.558a7.067 7.067 0 00-5.94-3.084zm20.33 15.121a3.744 3.744 0 01-1.8.451c-1.66 0-2.49-.827-2.49-3.084v-8.2h5.01v-3.987h-5.01v-7.673l-4.66 2.934v4.739h-2.93v3.987h2.93v8.275c0 4.627 2.6 7 6.96 7a7.182 7.182 0 003.08-.677zm20.47-5.755a10.579 10.579 0 00-2.03-6.206 8.126 8.126 0 00-6.81-3.16c-6.5 0-9.1 5.266-9.1 9.78s2.6 9.779 9.1 9.779a8.669 8.669 0 008.62-5.529l-3.77-1.392a5.134 5.134 0 01-4.58 2.934 4.354 4.354 0 01-4.48-4.288h13.05v-1.918zm-8.84-5.379q3.27 0 4.07 3.611h-8.17a4.146 4.146 0 014.1-3.611zm12.72 14.594a3.19 3.19 0 100-4.513 3.267 3.267 0 000 4.514z" fill="#002855" fill-rule="evenodd"/></svg><svg width="182.53" height="46.69" viewBox="-1 -1 182.53 46.69" y="69.56" xmlns="http://www.w3.org/2000/svg"><path data-name="No artifical flavors or preservatives." d="M8.71 10.835L3.03.635H.01v15.453h2.87v-10.2l5.67 10.2h3.03V.636H8.71v10.2zm7.03 3.819a6.1 6.1 0 008.26 0 6.336 6.336 0 000-8.234 6.036 6.036 0 00-8.26 0 6.336 6.336 0 000 8.234zm2.1-6.534a2.57 2.57 0 014.06 0 3.76 3.76 0 01.75 2.406 3.866 3.866 0 01-.75 2.428 2.606 2.606 0 01-4.06 0 3.866 3.866 0 01-.75-2.428 3.76 3.76 0 01.75-2.406zm17.68.287a1.8 1.8 0 011.92-1.281c1.3 0 1.94.552 1.94 1.634v.486h-1.85c-2.83 0-4.75 1.434-4.75 3.642a3.163 3.163 0 003.38 3.378 4.2 4.2 0 003.42-1.59l.29 1.413h2.25V9.444c0-3.112-1.57-4.658-4.68-4.658a4 4 0 00-4.24 3.091zm.13 4.437c0-.949.64-1.435 1.9-1.435h1.83v.221a2 2 0 01-.79 1.655 2.746 2.746 0 01-1.79.641 1.063 1.063 0 01-1.15-1.082zm11.94-.707c0-3.377 1.24-4.9 2.98-4.9a2.232 2.232 0 011.15.309l.51-2.539a4.449 4.449 0 00-1.35-.221 3.932 3.932 0 00-3.29 1.987v-1.81h-2.74v11.126h2.74v-3.952zm12.64 1.524a2.239 2.239 0 01-1.06.265c-.97 0-1.46-.486-1.46-1.811V7.303h2.94v-2.34h-2.94v-4.5l-2.74 1.721v2.782h-1.72v2.34h1.72v4.857c0 2.715 1.53 4.106 4.09 4.106a4.265 4.265 0 001.81-.4zM62.75 3.02a1.777 1.777 0 100-2.516 1.79 1.79 0 000 2.516zm-.11 13.069h2.73V4.963h-2.73v11.126zm6-8.786v8.786h2.74V7.303h2.34v-2.34h-2.34V4.19a1.174 1.174 0 011.26-1.39 3.593 3.593 0 011.32.309l.6-2.208A4.486 4.486 0 0072.48.46c-2.38 0-3.84 1.3-3.84 3.929v.574h-1.41v2.34h1.41zm7.72-4.283a1.777 1.777 0 100-2.516 1.79 1.79 0 000 2.516zm-.11 13.069h2.73V4.963h-2.73v11.126zm12.91-4a2.825 2.825 0 01-2.6 1.833c-1.68 0-2.56-1.369-2.56-3.4s.88-3.4 2.56-3.4a2.823 2.823 0 012.6 1.833l2.46-.994a4.952 4.952 0 00-5.06-3.179 5.059 5.059 0 00-4.02 1.634 6.683 6.683 0 000 8.212 5.059 5.059 0 004.02 1.634 4.952 4.952 0 005.06-3.179zm6.7-3.686a1.8 1.8 0 011.92-1.281c1.3 0 1.94.552 1.94 1.634v.486h-1.85c-2.83 0-4.75 1.434-4.75 3.642a3.163 3.163 0 003.38 3.378 4.2 4.2 0 003.42-1.59l.29 1.413h2.25V9.44c0-3.112-1.57-4.658-4.68-4.658a4 4 0 00-4.24 3.091zm.13 4.437c0-.949.64-1.435 1.9-1.435h1.83v.221a2 2 0 01-.79 1.655 2.746 2.746 0 01-1.79.641 1.063 1.063 0 01-1.15-1.078zm9.19 3.245h2.74V.46h-2.74v15.629zm12.01-8.786v8.786h2.74V7.299h2.34v-2.34h-2.34v-.773a1.174 1.174 0 011.26-1.39 3.593 3.593 0 011.32.309l.6-2.208a4.486 4.486 0 00-2.08-.441c-2.38 0-3.84 1.3-3.84 3.929v.574h-1.41v2.34h1.41zm7.52 8.786h2.74V.46h-2.74v15.629zm7.71-7.682a1.813 1.813 0 011.92-1.281c1.31 0 1.95.552 1.95 1.634v.486h-1.86c-2.82 0-4.74 1.434-4.74 3.642a3.16 3.16 0 003.37 3.378 4.217 4.217 0 003.43-1.59l.28 1.413h2.25V9.44c0-3.112-1.56-4.658-4.68-4.658a3.989 3.989 0 00-4.23 3.091zm.14 4.437c0-.949.64-1.435 1.89-1.435h1.84v.221a2.012 2.012 0 01-.8 1.655 2.727 2.727 0 01-1.79.641 1.06 1.06 0 01-1.14-1.078zm11.18 3.245h2.47l3.77-11.126h-2.76l-2.25 7.748-2.25-7.748h-2.76zm8.32-1.435a6.1 6.1 0 008.26 0 6.336 6.336 0 000-8.234 6.036 6.036 0 00-8.26 0 6.336 6.336 0 000 8.238zm2.1-6.534a2.57 2.57 0 014.06 0 3.76 3.76 0 01.75 2.406 3.866 3.866 0 01-.75 2.428 2.606 2.606 0 01-4.06 0 3.866 3.866 0 01-.75-2.428 3.76 3.76 0 01.75-2.402zm12.78 4.017c0-3.377 1.24-4.9 2.98-4.9a2.232 2.232 0 011.15.309l.5-2.539a4.341 4.341 0 00-1.34-.221 3.919 3.919 0 00-3.29 1.987v-1.81h-2.74v11.126h2.74v-3.952zm9.52-7.351a3.523 3.523 0 00-2.56.95 3.139 3.139 0 001.26 5.3c.42.176 1.19.419 1.57.6a3.266 3.266 0 01.61.265.9.9 0 01.6.838 1.141 1.141 0 01-1.37 1.193 2.343 2.343 0 01-2.23-1.833l-2.18 1.17a5.145 5.145 0 001.65 2.1 4.424 4.424 0 002.76.906 3.854 3.854 0 002.85-1.082 3.561 3.561 0 001.1-2.627 2.834 2.834 0 00-.68-1.81 2.483 2.483 0 00-.8-.574 7.039 7.039 0 00-.79-.42l-.95-.331-.79-.287a1.275 1.275 0 01-1.06-1.082.925.925 0 011.01-.927 2.314 2.314 0 011.86.972l1.63-1.5a4.163 4.163 0 00-3.49-1.817zM8.71 38.73a6.1 6.1 0 008.26 0 6.336 6.336 0 000-8.234 6.036 6.036 0 00-8.26 0 6.336 6.336 0 000 8.238zm2.1-6.534a2.57 2.57 0 014.06 0 3.76 3.76 0 01.75 2.406 3.866 3.866 0 01-.75 2.428 2.606 2.606 0 01-4.06 0 3.866 3.866 0 01-.75-2.428 3.76 3.76 0 01.75-2.402zm12.78 4.018c0-3.378 1.24-4.9 2.98-4.9a2.232 2.232 0 011.15.309l.51-2.539a4.449 4.449 0 00-1.35-.221 3.932 3.932 0 00-3.29 1.987v-1.81h-2.73v11.126h2.73v-3.951zm17.49 4.128c3.26 0 5.07-2.23 5.07-5.74s-1.81-5.74-5.07-5.74a3.24 3.24 0 00-2.7 1.325v-1.148h-2.73v15.636h2.73v-5.518a3.68 3.68 0 002.7 1.189zm1.47-3.245a2.361 2.361 0 01-3.7.022 3.976 3.976 0 01-.71-2.517 3.906 3.906 0 01.71-2.494 2.342 2.342 0 013.7 0 4.627 4.627 0 010 4.993zm8.74-.883c0-3.378 1.24-4.9 2.98-4.9a2.232 2.232 0 011.15.309l.51-2.539a4.449 4.449 0 00-1.35-.221 3.932 3.932 0 00-3.29 1.987v-1.81h-2.74v11.126h2.74v-3.951zm15.93-1.855a6.166 6.166 0 00-1.2-3.642 4.762 4.762 0 00-3.99-1.855c-3.82 0-5.34 3.091-5.34 5.74s1.52 5.74 5.34 5.74a5.076 5.076 0 005.05-3.245l-2.2-.817a3.034 3.034 0 01-2.7 1.722 2.545 2.545 0 01-2.62-2.517h7.66v-1.126zm-5.19-3.157a2.307 2.307 0 012.38 2.12h-4.79a2.44 2.44 0 012.41-2.116zm10.94-2.34a3.568 3.568 0 00-2.57.95 3.139 3.139 0 001.26 5.3c.42.176 1.19.419 1.57.6a3.669 3.669 0 01.62.265.886.886 0 01.59.839 1.137 1.137 0 01-1.36 1.192 2.342 2.342 0 01-2.23-1.833l-2.19 1.17a5.092 5.092 0 001.66 2.1 4.4 4.4 0 002.76.905 3.831 3.831 0 002.84-1.082 3.567 3.567 0 001.11-2.627 2.838 2.838 0 00-.69-1.81 2.437 2.437 0 00-.79-.574 7.928 7.928 0 00-.8-.42l-.95-.331-.79-.287a1.275 1.275 0 01-1.06-1.081.928.928 0 011.02-.928 2.313 2.313 0 011.85.972l1.63-1.5a4.143 4.143 0 00-3.48-1.816zm16.16 5.5a6.224 6.224 0 00-1.19-3.642 4.782 4.782 0 00-4-1.855c-3.82 0-5.34 3.091-5.34 5.74s1.52 5.74 5.34 5.74A5.089 5.089 0 0089 37.1l-2.21-.817a3.023 3.023 0 01-2.7 1.722 2.551 2.551 0 01-2.62-2.517h7.66v-1.126zm-5.19-3.157a2.3 2.3 0 012.38 2.12h-4.79a2.44 2.44 0 012.41-2.119zm10.25 5.012c0-3.378 1.24-4.9 2.98-4.9a2.232 2.232 0 011.15.309l.51-2.539a4.449 4.449 0 00-1.35-.221 3.932 3.932 0 00-3.29 1.987v-1.81h-2.73v11.126h2.73v-3.951zm9.3 3.951h2.47l3.78-11.126h-2.76l-2.25 7.749-2.25-7.749h-2.76zm9.55-7.682a1.8 1.8 0 011.92-1.281c1.3 0 1.94.552 1.94 1.634v.486h-1.85c-2.83 0-4.75 1.435-4.75 3.642a3.163 3.163 0 003.38 3.378 4.2 4.2 0 003.42-1.59l.29 1.413h2.25v-6.645c0-3.112-1.57-4.658-4.68-4.658a4 4 0 00-4.24 3.091zm.13 4.437c0-.949.64-1.435 1.9-1.435h1.83v.221a2.034 2.034 0 01-.79 1.656 2.751 2.751 0 01-1.79.64 1.063 1.063 0 01-1.15-1.081zm14.81.817a2.239 2.239 0 01-1.06.265c-.97 0-1.46-.486-1.46-1.81v-4.813h2.94v-2.34h-2.94v-4.5l-2.74 1.722v2.781H121v2.34h1.72v4.857c0 2.715 1.53 4.106 4.09 4.106a4.265 4.265 0 001.81-.4zm2.52-10.641a1.78 1.78 0 100-2.516 1.8 1.8 0 000 2.517zm-.11 13.069h2.74V29.043h-2.74v11.126zm8.01 0h2.48l3.77-11.126h-2.76l-2.25 7.749-2.25-7.749h-2.76zm17.32-5.806a6.155 6.155 0 00-1.19-3.642 4.769 4.769 0 00-4-1.855c-3.81 0-5.34 3.091-5.34 5.74s1.53 5.74 5.34 5.74a5.089 5.089 0 005.06-3.245l-2.21-.817a3.009 3.009 0 01-2.69 1.722 2.56 2.56 0 01-2.63-2.517h7.66v-1.126zm-5.19-3.157a2.309 2.309 0 012.39 2.12h-4.79a2.43 2.43 0 012.4-2.119zm10.94-2.34a3.527 3.527 0 00-2.56.95 3.139 3.139 0 001.26 5.3c.42.176 1.19.419 1.57.6a3.669 3.669 0 01.62.265.9.9 0 01.59.839 1.141 1.141 0 01-1.37 1.192 2.342 2.342 0 01-2.23-1.833l-2.18 1.17a5.147 5.147 0 001.65 2.1 4.424 4.424 0 002.76.905 3.854 3.854 0 002.85-1.082 3.558 3.558 0 001.1-2.627 2.834 2.834 0 00-.68-1.81 2.387 2.387 0 00-.8-.574 7.039 7.039 0 00-.79-.42l-.95-.331-.79-.287a1.275 1.275 0 01-1.06-1.081.925.925 0 011.01-.928 2.317 2.317 0 011.86.972l1.63-1.5a4.161 4.161 0 00-3.49-1.819zm6.8 10.906a1.87 1.87 0 100-2.649 1.91 1.91 0 000 2.653z" fill="#002855" fill-rule="evenodd"/></svg><svg width="62.66" height="22.16" viewBox="-1 -1 62.66 22.16" y="116.25" xmlns="http://www.w3.org/2000/svg"><path data-name="SERVING SUGGESTION." d="M4.01 1.121A1.848 1.848 0 002.19.001a1.734 1.734 0 00-1.72 1.78c0 1.08.79 1.52 1.7 1.95a1.75 1.75 0 011.32 1.36 1.335 1.335 0 01-.27.831 1.259 1.259 0 01-.95.4 1.622 1.622 0 01-1.5-1.511l-.76.46a2.288 2.288 0 002.26 1.891 2.046 2.046 0 002.1-2.091c0-1.13-.88-1.61-1.67-2.01-.74-.37-1.35-.66-1.35-1.35a.851.851 0 01.84-.87 1.158 1.158 0 011.11.74zM5.72.081v7h4.12v-.84H6.6V3.77h2.54v-.84H6.6V.92h3.14V.08H5.72zm9.37 7h1.04L14.04 3.72a1.709 1.709 0 001.46-1.79A1.816 1.816 0 0013.44.08h-2.33v7h.88v-3.3h1.05zM13.46.92a1.016 1.016 0 110 2.02h-1.47V.92h1.47zm7.66-.84L19.2 5.831 17.28.08h-.93l2.41 7h.88l2.41-7h-.93zm1.98 0v7h.88v-7h-.88zm6.9 0v5.47L26.84.08h-1.03v7h.88V1.629l3.16 5.451h1.03v-7H30zm5.92 4.31h1.51a1.86 1.86 0 01-1.93 1.931c-1.29 0-2.25-.931-2.25-2.741S34.21.84 35.5.84a1.943 1.943 0 011.9 1.53l.85-.25A2.664 2.664 0 0035.5 0c-1.63 0-3.16 1.15-3.16 3.58s1.53 3.581 3.12 3.581a2.2 2.2 0 001.97-1.04l.09.96h.75V3.556h-2.35v.84zM4.01 14.12A1.848 1.848 0 002.19 13a1.734 1.734 0 00-1.72 1.78c0 1.08.79 1.52 1.7 1.95a1.75 1.75 0 011.32 1.36 1.335 1.335 0 01-.27.831 1.259 1.259 0 01-.95.4 1.622 1.622 0 01-1.5-1.511l-.76.46a2.288 2.288 0 002.26 1.891 2.046 2.046 0 002.1-2.091c0-1.13-.88-1.61-1.67-2.01-.74-.37-1.35-.66-1.35-1.35a.851.851 0 01.84-.87 1.158 1.158 0 011.11.74zm1.57 3.58a2.45 2.45 0 104.9 0v-4.62H9.6v4.68a1.57 1.57 0 01-3.14 0v-4.68h-.88v4.62zm9.85-.31h1.51a1.86 1.86 0 01-1.93 1.931c-1.29 0-2.25-.931-2.25-2.741s.96-2.74 2.25-2.74a1.943 1.943 0 011.9 1.53l.85-.25A2.664 2.664 0 0015.01 13c-1.63 0-3.16 1.15-3.16 3.58s1.53 3.581 3.12 3.581a2.2 2.2 0 001.97-1.04l.09.96h.75v-3.525h-2.35v.84zm7.15 0h1.51a1.86 1.86 0 01-1.93 1.931c-1.29 0-2.25-.931-2.25-2.741s.96-2.74 2.25-2.74a1.943 1.943 0 011.9 1.53l.85-.25A2.664 2.664 0 0022.16 13C20.53 13 19 14.15 19 16.58s1.53 3.581 3.12 3.581a2.2 2.2 0 001.97-1.04l.09.96h.75v-3.525h-2.35v.84zm4.01-4.31v7h4.12v-.84h-3.24v-2.471h2.54v-.84h-2.54v-2.01h3.14v-.84h-4.02zm8.96 1.04A1.848 1.848 0 0033.73 13a1.734 1.734 0 00-1.72 1.78c0 1.08.79 1.52 1.7 1.95a1.75 1.75 0 011.32 1.36 1.335 1.335 0 01-.27.831 1.259 1.259 0 01-.95.4 1.622 1.622 0 01-1.5-1.511l-.76.46a2.288 2.288 0 002.26 1.891 2.046 2.046 0 002.1-2.091c0-1.13-.88-1.61-1.67-2.01-.74-.37-1.35-.66-1.35-1.35a.851.851 0 01.84-.87 1.158 1.158 0 011.11.74zm.97-.2h2.02v6.161h.88V13.92h2.02v-.84h-4.92v.84zm5.99-.84v7h.88v-7h-.88zm5.48-.08c-1.67 0-3.14 1.25-3.14 3.58s1.47 3.581 3.14 3.581 3.14-1.25 3.14-3.581-1.47-3.579-3.14-3.579zm0 .84c1.24 0 2.23.91 2.23 2.74s-.99 2.741-2.23 2.741-2.23-.911-2.23-2.741.99-2.739 2.23-2.739zm8.79-.76v5.47l-3.16-5.47h-1.03v7h.88v-5.451l3.16 5.451h1.03v-7h-.88zm2.62 6.411a.63.63 0 101.26 0 .63.63 0 10-1.26.001z" fill="#002855" fill-rule="evenodd"/></svg></svg>