<svg width="285" height="170" xmlns="http://www.w3.org/2000/svg" xmlns:xlink="http://www.w3.org/1999/xlink"><svg width="284.88" height="84.13" viewBox="-1 -1 284.88 84.13" xmlns="http://www.w3.org/2000/svg"><path d="M28.254 32.376V16.237h-11.7v4.937h5.94a6.764 6.764 0 01-7.177 6.08c-5.349 0-9.051-3.566-9.051-10.88 0-7.131 3.749-10.88 9.188-10.88 3.611 0 6.217 2.011 7.863 6.034l5.44-1.417a13.13 13.13 0 00-13.3-10.1 14.864 14.864 0 00-10.788 4.3C1.698 7.191.235 11.211.235 16.379s1.417 9.188 4.3 12.068a14.212 14.212 0 0010.459 4.29c3.52 0 6.08-1.28 7.771-3.794l.5 3.428h4.989zm7.566-2.971a11.124 11.124 0 008.548 3.332 11.124 11.124 0 008.548-3.337 12.043 12.043 0 003.154-8.548 11.932 11.932 0 00-3.154-8.5 11.153 11.153 0 00-8.548-3.383 11.153 11.153 0 00-8.548 3.383 11.932 11.932 0 00-3.154 8.5 12.043 12.043 0 003.154 8.553zm4.343-13.531a5.328 5.328 0 018.411 0 7.815 7.815 0 011.554 4.983 8.037 8.037 0 01-1.554 5.029 5.4 5.4 0 01-8.411 0 8.037 8.037 0 01-1.554-5.029 7.815 7.815 0 011.554-4.984zm22.148 13.531a11.123 11.123 0 008.548 3.337 11.124 11.124 0 008.549-3.337 12.042 12.042 0 003.154-8.548 11.931 11.931 0 00-3.154-8.5 11.154 11.154 0 00-8.549-3.383 11.152 11.152 0 00-8.548 3.383 11.931 11.931 0 00-3.154 8.5 12.043 12.043 0 003.154 8.548zm4.343-13.532a5.328 5.328 0 018.411 0 7.817 7.817 0 011.554 4.983 8.039 8.039 0 01-1.554 5.029 5.4 5.4 0 01-8.411 0 8.036 8.036 0 01-1.554-5.029 7.814 7.814 0 011.554-4.983zm29.622-6.9c-6.765 0-10.514 4.617-10.514 11.885s3.749 11.879 10.514 11.879a6.662 6.662 0 005.577-2.743v2.377h5.669V.011h-5.669v11.426a7.608 7.608 0 00-5.577-2.466zm-3.062 6.72a4.76 4.76 0 013.84-1.874 4.615 4.615 0 013.794 1.874 7.911 7.911 0 011.508 5.166 8.047 8.047 0 01-1.508 5.211 4.574 4.574 0 01-3.794 1.828 4.76 4.76 0 01-3.84-1.874 7.991 7.991 0 01-1.509-5.166 7.991 7.991 0 011.509-5.167zm20.247 16.685h5.668v-9.19c0-5.806 2.332-9.371 5.257-9.371 2.194 0 3.292 1.28 3.292 3.794v14.765h5.668V15.919c0-4.526-2.834-6.948-7.086-6.948a8.43 8.43 0 00-7.131 4.069V9.337h-5.668v23.04zm45.979-12.023a12.824 12.824 0 00-2.469-7.543 9.881 9.881 0 00-8.274-3.84c-7.909 0-11.063 6.4-11.063 11.885s3.154 11.88 11.06 11.88c5.028 0 8.5-2.24 10.468-6.72l-4.568-1.687c-1.372 2.377-3.246 3.566-5.577 3.566a5.291 5.291 0 01-5.44-5.211h15.863v-2.332zm-10.746-6.539q3.976 0 4.937 4.389h-9.92a5.038 5.038 0 014.983-4.389zm22.3-4.846a7.323 7.323 0 00-5.3 1.967 6.336 6.336 0 00-2.057 4.754c0 3.291 1.737 4.983 4.663 6.217.869.366 2.468.869 3.246 1.234a7.735 7.735 0 011.28.549 1.852 1.852 0 011.234 1.737c0 1.646-.96 2.468-2.834 2.468-2.149 0-3.7-1.28-4.617-3.794l-4.526 2.423a10.665 10.665 0 003.428 4.343 9.129 9.129 0 005.715 1.874 7.963 7.963 0 005.9-2.24 7.391 7.391 0 002.285-5.44 5.862 5.862 0 00-1.417-3.749 5.086 5.086 0 00-1.645-1.188 15.586 15.586 0 00-1.646-.869l-1.966-.686-1.646-.594c-1.462-.549-2.194-1.28-2.194-2.24a1.922 1.922 0 012.1-1.92 4.771 4.771 0 013.84 2.011l3.383-3.108a8.6 8.6 0 00-7.219-3.748zm20.178 0a7.323 7.323 0 00-5.3 1.966 6.336 6.336 0 00-2.057 4.754c0 3.291 1.737 4.983 4.663 6.217.869.366 2.469.869 3.246 1.234a7.735 7.735 0 011.28.549 1.852 1.852 0 011.234 1.737c0 1.646-.96 2.468-2.834 2.468-2.149 0-3.7-1.28-4.617-3.794l-4.526 2.423a10.668 10.668 0 003.429 4.343 9.128 9.128 0 005.714 1.874 7.961 7.961 0 005.9-2.24 7.391 7.391 0 002.29-5.439 5.862 5.862 0 00-1.417-3.749 5.086 5.086 0 00-1.645-1.188 15.586 15.586 0 00-1.646-.869l-1.966-.686-1.645-.594c-1.463-.549-2.195-1.28-2.195-2.24a1.922 1.922 0 012.1-1.92 4.771 4.771 0 013.84 2.011l3.383-3.108a8.6 8.6 0 00-7.224-3.748zm30.132 21.943l-3.977 10.788h5.486l11.881-32.364h-5.668l-5.029 14.446-5.344-14.446h-5.714zm17.161-1.509a12.618 12.618 0 0017.1 0 12.042 12.042 0 003.154-8.548 11.931 11.931 0 00-3.154-8.5 12.493 12.493 0 00-17.1 0 11.931 11.931 0 00-3.154 8.5 12.042 12.042 0 003.154 8.549zm4.343-13.531a5.327 5.327 0 018.411 0 7.811 7.811 0 011.554 4.983 8.033 8.033 0 01-1.554 5.029 5.4 5.4 0 01-8.411 0 8.033 8.033 0 01-1.554-5.029 7.811 7.811 0 011.554-4.983zm40.086-6.536h-5.669v9.188c0 5.806-2.331 9.371-5.257 9.371-2.194 0-3.291-1.28-3.291-3.794V9.337h-5.673v16.456c0 4.526 2.835 6.948 7.086 6.948 2.88 0 5.257-1.371 7.131-4.068v3.7h5.673V9.337zM16.642 73.474c-1.234 2.514-3.063 3.794-5.394 3.794-3.474 0-5.3-2.834-5.3-7.04s1.829-7.04 5.3-7.04c2.331 0 4.16 1.28 5.394 3.794l5.074-2.057c-1.783-4.389-5.257-6.583-10.468-6.583-3.611 0-6.354 1.143-8.32 3.383a12.406 12.406 0 00-2.926 8.5 12.407 12.407 0 002.926 8.5c1.966 2.24 4.709 3.383 8.32 3.383 5.211 0 8.685-2.2 10.468-6.583zm13.523-7.637a3.746 3.746 0 013.977-2.651c2.7 0 4.023 1.143 4.023 3.383v1.008h-3.84c-5.851 0-9.828 2.971-9.828 7.543 0 4.435 2.926 6.995 6.994 6.995a8.7 8.7 0 007.086-3.292l.594 2.926h4.663V67.988c0-6.446-3.246-9.645-9.691-9.645-4.617 0-8.046 2.56-8.777 6.4zm.274 9.188c0-1.966 1.326-2.971 3.931-2.971h3.794v.457a4.161 4.161 0 01-1.646 3.428 5.655 5.655 0 01-3.7 1.326 2.2 2.2 0 01-2.379-2.237zm18.715 6.72h5.668v-9.186c0-5.806 2.331-9.371 5.257-9.371 2.194 0 3.291 1.28 3.291 3.794v14.766h5.669V65.291c0-4.526-2.834-6.948-7.086-6.948-2.88 0-5.257 1.371-7.131 4.069v-3.7h-5.668v23.04zm49.782-5.029a4.592 4.592 0 01-2.194.549c-2.011 0-3.017-1.006-3.017-3.748v-9.963h6.08v-4.846h-6.08v-9.325l-5.669 3.566v5.76h-3.562v4.846h3.565v10.056c0 5.623 3.155 8.5 8.457 8.5a8.8 8.8 0 003.749-.823zm9.038-10.879a3.745 3.745 0 013.977-2.651c2.7 0 4.023 1.143 4.023 3.383v1.008h-3.84c-5.851 0-9.828 2.971-9.828 7.543 0 4.435 2.925 6.995 6.994 6.995a8.7 8.7 0 007.085-3.292l.595 2.926h4.662V67.988c0-6.446-3.245-9.645-9.691-9.645-4.617 0-8.045 2.56-8.777 6.4zm.274 9.188c0-1.966 1.326-2.971 3.932-2.971h3.794v.457a4.161 4.161 0 01-1.646 3.428 5.652 5.652 0 01-3.7 1.326 2.2 2.2 0 01-2.38-2.237zm25.458-16.685a7.319 7.319 0 00-5.3 1.966 6.332 6.332 0 00-2.057 4.754c0 3.291 1.737 4.983 4.662 6.217.869.366 2.469.869 3.246 1.234a7.707 7.707 0 011.28.549 1.851 1.851 0 011.234 1.737c0 1.646-.96 2.469-2.834 2.469-2.149 0-3.7-1.28-4.617-3.794l-4.526 2.425a10.665 10.665 0 003.429 4.343 9.124 9.124 0 005.714 1.875 7.962 7.962 0 005.9-2.24 7.39 7.39 0 002.286-5.44 5.868 5.868 0 00-1.417-3.749 5.092 5.092 0 00-1.646-1.188 15.487 15.487 0 00-1.646-.869l-1.965-.686-1.646-.594c-1.463-.549-2.194-1.28-2.194-2.24a1.922 1.922 0 012.1-1.92 4.771 4.771 0 013.84 2.011l3.383-3.109a8.6 8.6 0 00-7.226-3.748zm24.709 18.377a4.6 4.6 0 01-2.194.549c-2.012 0-3.018-1.006-3.018-3.748v-9.964h6.08v-4.846h-6.08v-9.325l-5.668 3.566v5.76h-3.566v4.846h3.566v10.056c0 5.623 3.154 8.5 8.457 8.5a8.8 8.8 0 003.748-.823zm24.879-6.992a12.823 12.823 0 00-2.468-7.543 9.881 9.881 0 00-8.274-3.84c-7.909 0-11.063 6.4-11.063 11.885s3.154 11.886 11.063 11.886c5.028 0 8.5-2.24 10.468-6.72l-4.571-1.691c-1.372 2.377-3.246 3.566-5.577 3.566a5.291 5.291 0 01-5.44-5.211h15.862v-2.332zm-10.742-6.537q3.977 0 4.937 4.389h-9.92a5.038 5.038 0 014.981-4.389zm15.456 17.737a3.879 3.879 0 100-5.486 3.977 3.977 0 00-.002 5.486z" fill="#002855" fill-rule="evenodd"/></svg><svg width="241.9" height="61.03" viewBox="-1 -1 241.9 61.03" y="84.13" xmlns="http://www.w3.org/2000/svg"><path data-name="No artifical flavors or preservatives." d="M12.86 14.321L5.36.844H1.37v20.418h3.79V7.787l7.5 13.477h3.99V.844h-3.79v13.477zm9.29 5.047a8.053 8.053 0 0010.91 0 8.336 8.336 0 000-10.881 7.971 7.971 0 00-10.91 0 8.368 8.368 0 000 10.881zm2.77-8.635a3.4 3.4 0 015.37 0 4.991 4.991 0 01.99 3.18 5.134 5.134 0 01-.99 3.209 3.451 3.451 0 01-5.37 0 5.134 5.134 0 01-.99-3.209 4.991 4.991 0 01.99-3.18zm23.37.379a2.389 2.389 0 012.54-1.692c1.72 0 2.56.73 2.56 2.159v.642h-2.45c-3.73 0-6.27 1.9-6.27 4.813a4.18 4.18 0 004.46 4.463 5.564 5.564 0 004.53-2.1l.38 1.867h2.97v-8.781c0-4.113-2.07-6.155-6.18-6.155-2.95 0-5.14 1.634-5.6 4.084zm.17 5.864c0-1.255.85-1.9 2.51-1.9h2.42v.291a2.654 2.654 0 01-1.05 2.188 3.6 3.6 0 01-2.36.846 1.407 1.407 0 01-1.52-1.425zm15.78-.934c0-4.463 1.64-6.476 3.94-6.476a2.948 2.948 0 011.52.409l.67-3.355a5.828 5.828 0 00-1.78-.292 5.187 5.187 0 00-4.35 2.626V6.562h-3.61v14.7h3.61v-5.22zm16.7 2.013a2.919 2.919 0 01-1.4.35c-1.28 0-1.93-.642-1.93-2.392V9.654h3.88V6.562h-3.88V.611L74 2.887v3.675h-2.28v3.093H74v6.417c0 3.589 2.01 5.426 5.39 5.426a5.638 5.638 0 002.4-.525zm3.33-14.061a2.353 2.353 0 100-3.325 2.382 2.382 0 000 3.325zm-.15 17.27h3.62V6.562h-3.62v14.7zm7.94-11.61v11.608h3.62V9.652h3.09v-3.09h-3.09V5.541a1.549 1.549 0 011.66-1.837 4.72 4.72 0 011.75.408l.79-2.917a5.908 5.908 0 00-2.75-.584c-3.15 0-5.07 1.722-5.07 5.193v.758h-1.87v3.093h1.87zm10.2-5.66a2.349 2.349 0 100-3.325 2.369 2.369 0 000 3.325zm-.15 17.27h3.62V6.562h-3.62v14.7zm17.07-5.28a3.75 3.75 0 01-3.44 2.421c-2.22 0-3.39-1.808-3.39-4.492s1.17-4.493 3.39-4.493a3.75 3.75 0 013.44 2.422l3.24-1.313c-1.14-2.8-3.36-4.2-6.68-4.2a6.657 6.657 0 00-5.31 2.159 8.807 8.807 0 000 10.852 6.66 6.66 0 005.31 2.158c3.32 0 5.54-1.4 6.68-4.2zm8.84-4.872a2.4 2.4 0 012.54-1.692c1.72 0 2.57.73 2.57 2.159v.642h-2.45c-3.73 0-6.27 1.9-6.27 4.813a4.175 4.175 0 004.46 4.463 5.545 5.545 0 004.52-2.1l.38 1.867h2.98v-8.781c0-4.113-2.07-6.155-6.19-6.155-2.94 0-5.13 1.634-5.6 4.084zm.18 5.864c0-1.255.85-1.9 2.51-1.9h2.42v.291a2.654 2.654 0 01-1.05 2.188 3.6 3.6 0 01-2.36.846 1.4 1.4 0 01-1.52-1.425zm12.15 4.288h3.62V.61h-3.62v20.652zm15.87-11.61v11.608h3.61V9.652h3.1v-3.09h-3.1V5.541a1.555 1.555 0 011.67-1.837 4.764 4.764 0 011.75.408l.78-2.917a5.865 5.865 0 00-2.74-.584c-3.15 0-5.07 1.722-5.07 5.193v.758h-1.87v3.093h1.87zm9.94 11.61h3.61V.61h-3.61v20.652zm10.19-10.152a2.377 2.377 0 012.53-1.692c1.72 0 2.57.73 2.57 2.159v.642H179c-3.73 0-6.27 1.9-6.27 4.813a4.18 4.18 0 004.46 4.463 5.532 5.532 0 004.52-2.1l.38 1.867h2.98v-8.781c0-4.113-2.07-6.155-6.19-6.155-2.94 0-5.13 1.634-5.6 4.084zm.17 5.864c0-1.255.85-1.9 2.51-1.9h2.42v.291a2.654 2.654 0 01-1.05 2.188 3.6 3.6 0 01-2.36.846 1.4 1.4 0 01-1.52-1.425zm14.77 4.288h3.27l4.99-14.7h-3.65l-2.97 10.24-2.98-10.24h-3.64zm11-1.9a8.053 8.053 0 0010.91 0 8.336 8.336 0 000-10.881 7.971 7.971 0 00-10.91 0 8.368 8.368 0 000 10.885zm2.78-8.635a3.392 3.392 0 015.36 0 4.991 4.991 0 01.99 3.18 5.134 5.134 0 01-.99 3.209 3.441 3.441 0 01-5.36 0 5.079 5.079 0 01-1-3.209 4.939 4.939 0 011-3.176zm16.89 5.309c0-4.463 1.63-6.476 3.94-6.476a2.939 2.939 0 011.51.409l.67-3.355a5.781 5.781 0 00-1.78-.292 5.171 5.171 0 00-4.34 2.626V6.562h-3.62v14.7h3.62v-5.22zm12.58-9.714a4.656 4.656 0 00-3.38 1.254 4.032 4.032 0 00-1.32 3.034c0 2.1 1.11 3.18 2.98 3.968.55.233 1.57.554 2.07.787a5.469 5.469 0 01.82.35 1.181 1.181 0 01.78 1.109c0 1.05-.61 1.575-1.8 1.575-1.37 0-2.37-.817-2.95-2.421l-2.89 1.546a6.836 6.836 0 002.19 2.771 5.831 5.831 0 003.65 1.2 5.076 5.076 0 003.76-1.429 4.727 4.727 0 001.46-3.471 3.734 3.734 0 00-.91-2.393 3.169 3.169 0 00-1.05-.758 8.6 8.6 0 00-1.05-.554l-1.25-.438-1.05-.379c-.93-.35-1.4-.817-1.4-1.429a1.225 1.225 0 011.34-1.226 3.047 3.047 0 012.45 1.284l2.16-1.984a5.493 5.493 0 00-4.61-2.392zM2.01 51.185a8.05 8.05 0 0010.91 0 8.368 8.368 0 000-10.881 7.971 7.971 0 00-10.91 0 8.368 8.368 0 000 10.885zm2.77-8.635a3.4 3.4 0 015.37 0 4.991 4.991 0 01.99 3.18 5.134 5.134 0 01-.99 3.209 3.451 3.451 0 01-5.37 0 5.134 5.134 0 01-.99-3.209 4.991 4.991 0 01.99-3.176zm16.89 5.309c0-4.463 1.64-6.476 3.94-6.476a2.975 2.975 0 011.52.409l.67-3.355a5.828 5.828 0 00-1.78-.292 5.187 5.187 0 00-4.35 2.626v-2.389h-3.62v14.7h3.62v-5.22zm23.1 5.456c4.32 0 6.71-2.947 6.71-7.585s-2.39-7.585-6.71-7.585a4.263 4.263 0 00-3.56 1.75v-1.513H37.6v20.654h3.61v-7.293a4.874 4.874 0 003.56 1.576zm1.96-4.289a3.131 3.131 0 01-4.9.029 5.258 5.258 0 01-.94-3.325 5.172 5.172 0 01.94-3.3 3.107 3.107 0 014.9 0 6.14 6.14 0 010 6.6zm11.54-1.167c0-4.463 1.64-6.476 3.94-6.476a2.948 2.948 0 011.52.409l.67-3.355a5.828 5.828 0 00-1.78-.292 5.187 5.187 0 00-4.35 2.626v-2.389h-3.61v14.7h3.61v-5.22zm21.05-2.45a8.189 8.189 0 00-1.58-4.813 6.31 6.31 0 00-5.28-2.451c-5.05 0-7.06 4.084-7.06 7.585s2.01 7.585 7.06 7.585a6.712 6.712 0 006.68-4.289l-2.92-1.079a3.981 3.981 0 01-3.55 2.275 3.38 3.38 0 01-3.48-3.325h10.13v-1.488zm-6.86-4.172q2.535 0 3.15 2.8h-6.33a3.215 3.215 0 013.18-2.796zm14.45-3.092a4.672 4.672 0 00-3.38 1.255 4.055 4.055 0 00-1.31 3.033c0 2.1 1.11 3.18 2.97 3.968.56.233 1.58.554 2.07.787a4.712 4.712 0 01.82.35 1.177 1.177 0 01.79 1.109c0 1.05-.61 1.575-1.81 1.575-1.37 0-2.36-.817-2.95-2.421l-2.88 1.546a6.726 6.726 0 002.18 2.771 5.832 5.832 0 003.65 1.2 5.062 5.062 0 003.76-1.43 4.689 4.689 0 001.46-3.471 3.725 3.725 0 00-.9-2.392 3.384 3.384 0 00-1.05-.759 10.611 10.611 0 00-1.05-.554l-1.26-.438-1.05-.379c-.93-.35-1.4-.817-1.4-1.429a1.225 1.225 0 011.34-1.226 3.034 3.034 0 012.45 1.284l2.16-1.984a5.48 5.48 0 00-4.61-2.391zm21.36 7.264a8.177 8.177 0 00-1.57-4.813 6.31 6.31 0 00-5.28-2.451c-5.05 0-7.06 4.084-7.06 7.585s2.01 7.585 7.06 7.585a6.72 6.72 0 006.68-4.289l-2.92-1.079a3.984 3.984 0 01-3.56 2.275 3.377 3.377 0 01-3.47-3.325h10.12v-1.488zm-6.85-4.172q2.535 0 3.15 2.8h-6.33a3.215 3.215 0 013.18-2.796zm13.55 6.622c0-4.463 1.63-6.476 3.93-6.476a2.948 2.948 0 011.52.409l.67-3.355a5.781 5.781 0 00-1.78-.292 5.171 5.171 0 00-4.34 2.626v-2.389h-3.62v14.7h3.62v-5.22zm12.28 5.222h3.27l4.99-14.7h-3.65l-2.97 10.24-2.98-10.24h-3.64zm12.62-10.152a2.389 2.389 0 012.54-1.692c1.72 0 2.56.73 2.56 2.159v.642h-2.45c-3.73 0-6.27 1.9-6.27 4.813a4.181 4.181 0 004.46 4.464 5.565 5.565 0 004.53-2.1l.37 1.867h2.98v-8.781c0-4.113-2.07-6.155-6.18-6.155-2.95 0-5.14 1.634-5.61 4.084zm.17 5.864c0-1.255.85-1.9 2.51-1.9h2.42v.291a2.654 2.654 0 01-1.05 2.188 3.6 3.6 0 01-2.36.846 1.406 1.406 0 01-1.52-1.421zm19.57 1.079a2.919 2.919 0 01-1.4.35c-1.28 0-1.92-.641-1.92-2.392v-6.359h3.88v-3.089h-3.88v-5.951l-3.62 2.276v3.675h-2.28v3.093h2.28v6.418c0 3.588 2.01 5.426 5.4 5.426a5.628 5.628 0 002.39-.526zm3.33-14.061a2.353 2.353 0 100-3.325 2.382 2.382 0 000 3.329zm-.14 17.27h3.61v-14.7h-3.61v14.7zm10.59 0h3.27l4.98-14.7H178l-2.98 10.24-2.97-10.24h-3.65zm22.89-7.672a8.189 8.189 0 00-1.58-4.813 6.31 6.31 0 00-5.28-2.451c-5.05 0-7.06 4.084-7.06 7.585s2.01 7.585 7.06 7.585a6.712 6.712 0 006.68-4.289l-2.92-1.079a3.984 3.984 0 01-3.56 2.275 3.377 3.377 0 01-3.47-3.325h10.13v-1.488zm-6.86-4.172q2.535 0 3.15 2.8h-6.33a3.215 3.215 0 013.18-2.796zm14.45-3.092a4.656 4.656 0 00-3.38 1.255 4.019 4.019 0 00-1.31 3.033c0 2.1 1.1 3.18 2.97 3.968.56.233 1.58.554 2.07.787a4.712 4.712 0 01.82.35 1.191 1.191 0 01.79 1.109c0 1.05-.62 1.575-1.81 1.575-1.37 0-2.36-.817-2.95-2.421l-2.89 1.546a6.836 6.836 0 002.19 2.771 5.832 5.832 0 003.65 1.2 5.077 5.077 0 003.76-1.43 4.727 4.727 0 001.46-3.471 3.78 3.78 0 00-.9-2.392 3.384 3.384 0 00-1.05-.759 10.611 10.611 0 00-1.05-.554l-1.26-.438-1.05-.379c-.93-.35-1.4-.817-1.4-1.429a1.225 1.225 0 011.34-1.226 3.034 3.034 0 012.45 1.284l2.16-1.984a5.48 5.48 0 00-4.61-2.391zm8.98 14.411a2.475 2.475 0 100-3.5 2.536 2.536 0 000 3.506z" fill="#002855" fill-rule="evenodd"/></svg><svg width="118.56" height="24.03" viewBox="-1 -1 118.56 24.03" y="145.16" xmlns="http://www.w3.org/2000/svg"><path data-name="FRESH FRUIT ADDED AS A SERVING SUGGESTION." d="M.9.075v7.292h.92V4.002h2.69v-.875H1.82V.95h3.32V.075H.9zm9.59 7.292h1.08l-2.17-3.5a1.778 1.778 0 001.52-1.865A1.9 1.9 0 008.77.075H6.35v7.292h.91V3.93h1.1zM8.79.95a1.059 1.059 0 110 2.1H7.26V.95h1.53zm4.04-.875v7.292h4.29v-.875h-3.38V3.919h2.65v-.875h-2.65V.95h3.27V.075h-4.18zm9.32 1.084a1.937 1.937 0 00-1.9-1.167 1.8 1.8 0 00-1.79 1.854c0 1.125.82 1.583 1.77 2.031.71.334 1.38.709 1.38 1.417a1.375 1.375 0 01-.29.865 1.291 1.291 0 01-.99.417c-.93 0-1.32-.709-1.56-1.574l-.79.48a2.386 2.386 0 002.35 1.969 2.128 2.128 0 002.19-2.178c0-1.177-.91-1.677-1.74-2.094-.77-.385-1.4-.687-1.4-1.406a.883.883 0 01.87-.906 1.212 1.212 0 011.16.771zM28.18.075v2.979h-3.34V.075h-.91v7.292h.91V3.93h3.34v3.437h.91V.075h-.91zm5.93 0v7.292h.92V4.002h2.7v-.875h-2.7V.95h3.32V.075h-4.24zm9.6 7.292h1.08l-2.18-3.5a1.778 1.778 0 001.52-1.865A1.888 1.888 0 0041.99.075h-2.43v7.292h.92V3.93h1.09zM42.01.95a1.059 1.059 0 110 2.1h-1.53V.95h1.53zm3.79 3.938a2.555 2.555 0 105.11 0V.075h-.92V4.95a1.635 1.635 0 01-3.27 0V.075h-.92v4.813zM52.75.075v7.292h.91V.075h-.91zm2.02.875h2.1v6.417h.92V.95h2.1V.075h-5.12V.95zm8.4 6.417h.92l.65-1.948h2.79l.64 1.948h.92L66.57.075h-.88zm1.86-2.823l1.1-3.281 1.11 3.281h-2.21zM70.2.075v7.292h2a3.659 3.659 0 000-7.292h-2zm1.84.875c1.34 0 2.53.729 2.53 2.771s-1.19 2.771-2.53 2.771h-.93V.95h.93zm5.01-.875v7.292h2a3.659 3.659 0 000-7.292h-2zm1.84.875c1.34 0 2.53.729 2.53 2.771s-1.19 2.771-2.53 2.771h-.93V.95h.93zM83.9.075v7.292h4.29v-.875h-3.38V3.919h2.65v-.875h-2.65V.95h3.27V.075H83.9zm5.61 0v7.292h2a3.659 3.659 0 000-7.292h-2zm1.84.875c1.35 0 2.53.729 2.53 2.771s-1.18 2.771-2.53 2.771h-.93V.95h.93zm7.21 6.417h.92l.64-1.948h2.79l.65 1.948h.92L101.96.075h-.88zm1.85-2.823l1.11-3.281 1.1 3.281h-2.21zm8.76-3.385a1.919 1.919 0 00-1.9-1.167 1.81 1.81 0 00-1.79 1.854c0 1.125.83 1.583 1.77 2.031.71.334 1.38.709 1.38 1.417a1.432 1.432 0 01-.28.865 1.322 1.322 0 01-.99.417c-.94 0-1.32-.709-1.56-1.574l-.8.48a2.389 2.389 0 002.36 1.969 2.145 2.145 0 002.19-2.178c0-1.177-.92-1.677-1.74-2.094-.77-.385-1.41-.687-1.41-1.406a.883.883 0 01.87-.906 1.2 1.2 0 011.16.771zM.01 21.951h.92l.65-1.948h2.79l.64 1.948h.92l-2.52-7.293h-.87zm1.86-2.824l1.1-3.281 1.11 3.281H1.87zm11.77-3.385a1.937 1.937 0 00-1.9-1.167 1.8 1.8 0 00-1.79 1.854c0 1.125.82 1.584 1.77 2.032.71.333 1.38.708 1.38 1.417a1.431 1.431 0 01-.28.864 1.322 1.322 0 01-.99.417c-.94 0-1.33-.709-1.57-1.573l-.79.479a2.388 2.388 0 002.36 1.969 2.154 2.154 0 001.62-.688 2.132 2.132 0 00.56-1.489c0-1.177-.91-1.678-1.74-2.094-.77-.386-1.4-.688-1.4-1.407a.883.883 0 01.87-.906 1.206 1.206 0 011.16.771zm1.78-1.084v7.293h4.29v-.876h-3.37v-2.573h2.64v-.875h-2.64v-2.094h3.27v-.875h-4.19zm9.76 7.293h1.08l-2.18-3.5a1.778 1.778 0 001.52-1.864 1.888 1.888 0 00-2.14-1.928h-2.43v7.293h.92v-3.438h1.09zm-1.7-6.418a1.058 1.058 0 110 2.105h-1.53v-2.105h1.53zm7.97-.875l-2 5.99-2-5.99h-.97l2.51 7.293h.92l2.51-7.293h-.97zm2.06 0v7.293h.91v-7.293h-.91zm7.18 0v5.7l-3.29-5.7h-1.07v7.293h.91v-5.678l3.3 5.678h1.07v-7.293h-.92zm6.17 4.49h1.57a1.935 1.935 0 01-2.01 2.011c-1.34 0-2.34-.969-2.34-2.855s1-2.854 2.34-2.854a2.03 2.03 0 011.98 1.594l.88-.26a2.77 2.77 0 00-2.86-2.209c-1.7 0-3.29 1.2-3.29 3.729s1.59 3.73 3.25 3.73a2.278 2.278 0 002.05-1.084l.09 1h.78v-3.678h-2.44v.872zm10.72-3.406a1.937 1.937 0 00-1.9-1.167 1.8 1.8 0 00-1.79 1.854c0 1.125.82 1.584 1.77 2.032a1.812 1.812 0 011.37 1.417 1.369 1.369 0 01-.28.864 1.306 1.306 0 01-.99.417c-.94 0-1.32-.709-1.56-1.573l-.79.479a2.378 2.378 0 002.35 1.969 2.128 2.128 0 002.19-2.177c0-1.177-.92-1.678-1.74-2.094-.77-.386-1.41-.688-1.41-1.407a.892.892 0 01.88-.906 1.214 1.214 0 011.16.771zm1.62 3.729a2.555 2.555 0 105.11 0v-4.813h-.92v4.876a1.635 1.635 0 01-3.27 0v-4.876h-.92v4.813zm10.26-.323h1.57a1.935 1.935 0 01-2.01 2.011c-1.34 0-2.34-.969-2.34-2.855s1-2.854 2.34-2.854A2.022 2.022 0 0171 17.044l.89-.26a2.773 2.773 0 00-2.87-2.209c-1.69 0-3.29 1.2-3.29 3.729s1.6 3.73 3.25 3.73a2.278 2.278 0 002.05-1.084l.1 1h.78v-3.678h-2.45v.872zm7.45 0h1.58a1.943 1.943 0 01-2.02 2.011c-1.34 0-2.34-.969-2.34-2.855s1-2.854 2.34-2.854a2.022 2.022 0 011.98 1.594l.89-.26a2.773 2.773 0 00-2.87-2.209c-1.69 0-3.29 1.2-3.29 3.729s1.6 3.73 3.25 3.73a2.308 2.308 0 002.06-1.084l.09 1h.78v-3.678h-2.45v.872zm4.18-4.49v7.293h4.29v-.876H82v-2.573h2.65v-.875H82v-2.094h3.28v-.875h-4.19zm9.32 1.084a1.919 1.919 0 00-1.9-1.167 1.81 1.81 0 00-1.79 1.854c0 1.125.83 1.584 1.77 2.032.71.333 1.38.708 1.38 1.417a1.431 1.431 0 01-.28.864 1.322 1.322 0 01-.99.417c-.94 0-1.33-.709-1.57-1.573l-.79.479a2.388 2.388 0 002.36 1.969 2.154 2.154 0 001.62-.688 2.132 2.132 0 00.56-1.489c0-1.177-.91-1.678-1.73-2.094-.78-.386-1.41-.688-1.41-1.407a.883.883 0 01.87-.906 1.206 1.206 0 011.16.771zm1.01-.209h2.11v6.418h.91v-6.418h2.11v-.875h-5.13v.875zm6.24-.875v7.293h.92v-7.293h-.92zm5.7-.083c-1.73 0-3.27 1.3-3.27 3.729s1.54 3.73 3.27 3.73 3.28-1.3 3.28-3.73-1.54-3.729-3.28-3.729zm0 .875c1.3 0 2.33.948 2.33 2.854s-1.03 2.855-2.33 2.855-2.32-.948-2.32-2.855 1.03-2.854 2.32-2.854zm9.16-.792v5.7l-3.29-5.7h-1.08v7.293h.92v-5.678l3.29 5.678h1.08v-7.293h-.92zm2.72 6.678a.66.66 0 10.66-.656.647.647 0 00-.66.656z" fill="#002855" fill-rule="evenodd"/></svg></svg>