<svg width="271" height="50" xmlns="http://www.w3.org/2000/svg" xmlns:xlink="http://www.w3.org/1999/xlink"><svg width="270.34" height="24.66" viewBox="-1 -1 270.34 24.66" xmlns="http://www.w3.org/2000/svg"><path d="M15.206 17.586V8.824H8.851v2.682h3.224a3.673 3.673 0 01-3.9 3.3c-2.9 0-4.915-1.936-4.915-5.908 0-3.872 2.035-5.908 4.989-5.908 1.961 0 3.376 1.092 4.269 3.277l2.954-.77A7.13 7.13 0 008.249.011a8.071 8.071 0 00-5.858 2.333A8.7 8.7 0 00-.017 8.897a8.853 8.853 0 002.333 6.553A7.717 7.717 0 008 17.783a4.725 4.725 0 004.22-2.06l.273 1.862h2.706zm4.108-1.613a6.04 6.04 0 004.642 1.812 6.04 6.04 0 004.642-1.812 6.539 6.539 0 001.713-4.642 6.479 6.479 0 00-1.713-4.617 6.056 6.056 0 00-4.642-1.837 6.056 6.056 0 00-4.642 1.837 6.479 6.479 0 00-1.713 4.617 6.54 6.54 0 001.713 4.642zm2.361-7.348a2.893 2.893 0 014.567 0 4.244 4.244 0 01.844 2.706 4.364 4.364 0 01-.844 2.73 2.934 2.934 0 01-4.567 0 4.363 4.363 0 01-.844-2.73 4.243 4.243 0 01.844-2.706zm12.027 7.348a6.04 6.04 0 004.642 1.812 6.04 6.04 0 004.642-1.812 6.539 6.539 0 001.713-4.642 6.479 6.479 0 00-1.713-4.617 6.056 6.056 0 00-4.642-1.837 6.056 6.056 0 00-4.642 1.837 6.479 6.479 0 00-1.713 4.617 6.54 6.54 0 001.71 4.642zm2.358-7.347a2.893 2.893 0 014.567 0 4.244 4.244 0 01.844 2.706 4.364 4.364 0 01-.844 2.73 2.934 2.934 0 01-4.567 0 4.363 4.363 0 01-.844-2.73 4.243 4.243 0 01.841-2.707zm16.085-3.748c-3.674 0-5.709 2.507-5.709 6.454s2.035 6.454 5.709 6.454a3.618 3.618 0 003.03-1.491v1.291h3.078V.012h-3.078v6.206a4.132 4.132 0 00-3.033-1.341zm-1.67 3.648a2.586 2.586 0 012.089-1.02 2.506 2.506 0 012.06 1.018 4.294 4.294 0 01.819 2.805 4.368 4.368 0 01-.819 2.83 2.484 2.484 0 01-2.06.993 2.586 2.586 0 01-2.089-1.016 4.34 4.34 0 01-.819-2.8 4.34 4.34 0 01.819-2.81zm11 9.06h3.078v-4.989c0-3.152 1.266-5.089 2.855-5.089 1.191 0 1.787.7 1.787 2.06v8.018h3.08V8.65a3.5 3.5 0 00-3.847-3.773 4.577 4.577 0 00-3.872 2.209v-2.01h-3.081v12.51zm24.967-6.528a6.968 6.968 0 00-1.34-4.1 5.367 5.367 0 00-4.493-2.085c-4.294 0-6.007 3.475-6.007 6.454s1.713 6.454 6.007 6.454a5.715 5.715 0 005.684-3.649l-2.482-.918a3.4 3.4 0 01-3.029 1.936 2.873 2.873 0 01-2.954-2.83h8.613v-1.262zm-5.835-3.552a2.6 2.6 0 012.681 2.383h-5.387a2.736 2.736 0 012.706-2.383zm12.111-2.631a3.973 3.973 0 00-2.879 1.067 3.439 3.439 0 00-1.118 2.582c0 1.787.944 2.706 2.532 3.376.472.2 1.341.472 1.763.67a4.215 4.215 0 01.695.3 1.006 1.006 0 01.67.943 1.283 1.283 0 01-1.539 1.34 2.636 2.636 0 01-2.507-2.06l-2.46 1.313a5.784 5.784 0 001.861 2.358 4.958 4.958 0 003.1 1.018 4.321 4.321 0 003.2-1.216 4.013 4.013 0 001.241-2.954 3.186 3.186 0 00-.769-2.035 2.768 2.768 0 00-.894-.645 8.473 8.473 0 00-.893-.472l-1.068-.372-.893-.323a1.438 1.438 0 01-1.192-1.216 1.044 1.044 0 011.142-1.043 2.591 2.591 0 012.085 1.092l1.837-1.688a4.67 4.67 0 00-3.914-2.033zm10.957 0a3.977 3.977 0 00-2.88 1.067 3.442 3.442 0 00-1.12 2.584c0 1.787.944 2.706 2.532 3.376.472.2 1.341.472 1.763.67a4.215 4.215 0 01.7.3 1.006 1.006 0 01.67.943 1.283 1.283 0 01-1.539 1.34 2.636 2.636 0 01-2.507-2.06l-2.46 1.311a5.8 5.8 0 001.862 2.358 4.956 4.956 0 003.1 1.018 4.323 4.323 0 003.2-1.216 4.013 4.013 0 001.241-2.954 3.186 3.186 0 00-.769-2.035 2.768 2.768 0 00-.894-.645 8.365 8.365 0 00-.894-.472l-1.067-.372-.894-.323a1.438 1.438 0 01-1.191-1.216 1.044 1.044 0 011.147-1.043 2.591 2.591 0 012.085 1.092l1.837-1.688a4.672 4.672 0 00-3.922-2.033zm16.358 11.915l-2.16 5.858h2.979l6.454-17.574h-3.078l-2.731 7.844-2.9-7.844h-3.1zm9.318-.819a6.852 6.852 0 009.284 0 6.543 6.543 0 001.712-4.642 6.482 6.482 0 00-1.712-4.617 6.784 6.784 0 00-9.284 0 6.478 6.478 0 00-1.713 4.617 6.539 6.539 0 001.713 4.644zm2.358-7.347a2.893 2.893 0 014.567 0 4.243 4.243 0 01.844 2.706 4.363 4.363 0 01-.844 2.73 2.933 2.933 0 01-4.567 0 4.363 4.363 0 01-.844-2.73 4.243 4.243 0 01.844-2.705zm21.766-3.548h-3.078v4.989c0 3.153-1.266 5.089-2.855 5.089-1.191 0-1.787-.7-1.787-2.06V5.076h-3.08v8.936a3.5 3.5 0 003.847 3.773 4.578 4.578 0 003.873-2.209v2.01h3.08V5.076zm18.244 8.018a3.193 3.193 0 01-2.929 2.06c-1.886 0-2.879-1.539-2.879-3.823s.993-3.823 2.879-3.823a3.193 3.193 0 012.929 2.06l2.755-1.117c-.968-2.383-2.854-3.574-5.684-3.574a5.678 5.678 0 00-4.518 1.837 6.738 6.738 0 00-1.588 4.617 6.738 6.738 0 001.588 4.617 5.678 5.678 0 004.518 1.837c2.83 0 4.716-1.192 5.684-3.574zm7.343-4.145a2.033 2.033 0 012.159-1.44c1.465 0 2.185.621 2.185 1.837v.546h-2.085c-3.178 0-5.337 1.613-5.337 4.1a3.556 3.556 0 003.8 3.8 4.721 4.721 0 003.847-1.787l.323 1.589h2.532v-7.479c0-3.5-1.763-5.238-5.263-5.238-2.507 0-4.368 1.39-4.766 3.475zm.149 4.989c0-1.067.72-1.613 2.134-1.613h2.061v.248a2.259 2.259 0 01-.894 1.862 3.07 3.07 0 01-2.01.72 1.193 1.193 0 01-1.292-1.218zm10.164 3.648h3.078v-4.989c0-3.152 1.266-5.089 2.855-5.089 1.191 0 1.787.7 1.787 2.06v8.018h3.08V8.65a3.5 3.5 0 00-3.848-3.773 4.578 4.578 0 00-3.872 2.209v-2.01h-3.08v12.51zm27.032-2.73a2.5 2.5 0 01-1.192.3c-1.092 0-1.638-.546-1.638-2.035V7.706h3.3v-2.63h-3.3V.012l-3.078 1.936v3.128h-1.936v2.63h1.936v5.461c0 3.053 1.713 4.617 4.592 4.617a4.778 4.778 0 002.036-.447zm4.907-5.908a2.035 2.035 0 012.16-1.44c1.464 0 2.184.621 2.184 1.837v.546h-2.083c-3.177 0-5.337 1.613-5.337 4.1a3.557 3.557 0 003.8 3.8 4.722 4.722 0 003.848-1.787l.322 1.589h2.532v-7.478c0-3.5-1.762-5.238-5.262-5.238-2.507 0-4.369 1.39-4.766 3.475zm.149 4.989c0-1.067.72-1.613 2.135-1.613h2.06v.248a2.261 2.261 0 01-.893 1.862 3.071 3.071 0 01-2.011.72 1.194 1.194 0 01-1.294-1.217zm13.824-9.06a3.973 3.973 0 00-2.879 1.067 3.438 3.438 0 00-1.117 2.582c0 1.787.943 2.706 2.532 3.376.471.2 1.34.472 1.762.67a4.179 4.179 0 01.695.3 1 1 0 01.67.943 1.283 1.283 0 01-1.539 1.34 2.637 2.637 0 01-2.507-2.06l-2.46 1.311a5.793 5.793 0 001.861 2.358 4.958 4.958 0 003.1 1.018 4.321 4.321 0 003.2-1.216 4.013 4.013 0 001.241-2.954 3.186 3.186 0 00-.769-2.035 2.768 2.768 0 00-.894-.645 8.473 8.473 0 00-.893-.472l-1.068-.372-.893-.323a1.438 1.438 0 01-1.192-1.216 1.044 1.044 0 011.142-1.043 2.591 2.591 0 012.085 1.092l1.837-1.688a4.67 4.67 0 00-3.917-2.033zm13.417 9.979a2.5 2.5 0 01-1.192.3c-1.092 0-1.638-.546-1.638-2.035V7.706h3.3v-2.63h-3.3V.012l-3.078 1.936v3.128h-1.936v2.63h1.936v5.461c0 3.053 1.713 4.617 4.592 4.617a4.778 4.778 0 002.036-.447zm13.508-3.8a6.961 6.961 0 00-1.34-4.1 5.366 5.366 0 00-4.497-2.079c-4.294 0-6.007 3.475-6.007 6.454s1.713 6.454 6.007 6.454a5.714 5.714 0 005.684-3.649l-2.482-.918a3.4 3.4 0 01-3.028 1.936 2.873 2.873 0 01-2.954-2.83h8.613v-1.266zm-5.837-3.55a2.6 2.6 0 012.681 2.383h-5.381a2.737 2.737 0 012.7-2.383zm8.393 9.631a2.106 2.106 0 100-2.979 2.16 2.16 0 00.001 2.981z" fill="#002855" fill-rule="evenodd"/></svg><svg width="268.09" height="17.66" viewBox="-1 -1 268.09 17.66" y="24.66" xmlns="http://www.w3.org/2000/svg"><path data-name="No artifical flavors or preservatives." d="M6.62 8.232L2.3.47H0v11.76h2.18V4.469L6.5 12.23h2.3V.47H6.62v7.762zm5.28 2.906a4.647 4.647 0 006.29 0 4.811 4.811 0 000-6.266 4.6 4.6 0 00-6.29 0 4.843 4.843 0 000 6.266zm1.6-4.973a1.957 1.957 0 013.09 0 2.852 2.852 0 01.57 1.831 2.93 2.93 0 01-.57 1.848 1.852 1.852 0 01-1.54.74 1.87 1.87 0 01-1.55-.74 2.93 2.93 0 01-.57-1.848 2.852 2.852 0 01.57-1.831zm13.46.219a1.366 1.366 0 011.46-.975 1.216 1.216 0 011.48 1.244v.369h-1.42c-2.15 0-3.61 1.092-3.61 2.772a2.409 2.409 0 002.57 2.57 3.208 3.208 0 002.61-1.209l.22 1.075h1.71V7.173c0-2.368-1.19-3.544-3.56-3.544a3.048 3.048 0 00-3.23 2.352zm.1 3.376c0-.722.48-1.092 1.44-1.092h1.4v.168a1.542 1.542 0 01-.61 1.26 2.081 2.081 0 01-1.36.488.808.808 0 01-.87-.824zm9.02-.537c0-2.57.94-3.73 2.27-3.73a1.671 1.671 0 01.87.236l.39-1.932a3.361 3.361 0 00-1.03-.168 2.985 2.985 0 00-2.5 1.512V3.763H34v8.467h2.08V9.223zm9.56 1.159a1.679 1.679 0 01-.8.2c-.74 0-1.11-.37-1.11-1.378V5.542h2.23V3.761h-2.23V.334l-2.08 1.31v2.117h-1.32v1.781h1.32v3.7a2.806 2.806 0 003.1 3.124 3.252 3.252 0 001.38-.3zm1.85-8.1a1.356 1.356 0 100-1.915 1.375 1.375 0 000 1.918zm-.08 9.945h2.08V3.76h-2.08v8.467zm4.5-6.686v6.686h2.08V5.541h1.78V3.76h-1.78v-.588a.9.9 0 01.96-1.058 2.742 2.742 0 011.01.235l.45-1.68a3.387 3.387 0 00-1.58-.336 2.667 2.667 0 00-2.92 2.99v.437h-1.07v1.781h1.07zm5.81-3.259a1.356 1.356 0 100-1.915 1.375 1.375 0 000 1.918zm-.08 9.945h2.08V3.76h-2.08v8.467zm9.76-3.041a2.152 2.152 0 01-1.98 1.395c-1.28 0-1.95-1.042-1.95-2.588s.67-2.587 1.95-2.587a2.152 2.152 0 011.98 1.395l1.87-.756a3.763 3.763 0 00-3.85-2.419 3.854 3.854 0 00-3.06 1.243 5.1 5.1 0 000 6.249 3.854 3.854 0 003.06 1.243 3.763 3.763 0 003.85-2.419zm5.03-2.805a1.385 1.385 0 011.47-.975 1.208 1.208 0 011.47 1.244v.369h-1.41c-2.15 0-3.61 1.092-3.61 2.772a2.409 2.409 0 002.57 2.57 3.208 3.208 0 002.61-1.209l.21 1.075h1.72V7.17c0-2.368-1.2-3.544-3.56-3.544a3.048 3.048 0 00-3.23 2.352zm.11 3.376c0-.722.48-1.092 1.44-1.092h1.39v.168a1.533 1.533 0 01-.6 1.26 2.081 2.081 0 01-1.36.488.8.8 0 01-.87-.821zm6.93 2.47h2.08V.336h-2.08V12.23zm9.13-6.686v6.686h2.09V5.541h1.78V3.76h-1.78v-.588a.9.9 0 01.96-1.058 2.7 2.7 0 011 .235l.46-1.68a3.387 3.387 0 00-1.58-.336 2.669 2.669 0 00-2.93 2.99v.437h-1.07v1.781h1.07zm5.67 6.686h2.08V.336h-2.08V12.23zm5.8-5.846a1.374 1.374 0 011.46-.975 1.216 1.216 0 011.48 1.244v.369h-1.41c-2.15 0-3.61 1.092-3.61 2.772a2.4 2.4 0 002.57 2.57 3.2 3.2 0 002.6-1.209l.22 1.075h1.71V7.17c0-2.368-1.19-3.544-3.56-3.544a3.048 3.048 0 00-3.23 2.352zm.1 3.376c0-.722.49-1.092 1.44-1.092h1.4v.168a1.515 1.515 0 01-.61 1.26 2.062 2.062 0 01-1.36.488.808.808 0 01-.87-.821zm8.44 2.47h1.88l2.87-8.467h-2.1l-1.71 5.9-1.71-5.9h-2.1zm6.26-1.092a4.647 4.647 0 006.29 0 4.811 4.811 0 000-6.266 4.6 4.6 0 00-6.29 0 4.843 4.843 0 000 6.269zm1.6-4.973a1.957 1.957 0 013.09 0 2.852 2.852 0 01.57 1.831 2.93 2.93 0 01-.57 1.848 1.852 1.852 0 01-1.54.74 1.87 1.87 0 01-1.55-.74 2.93 2.93 0 01-.57-1.848 2.852 2.852 0 01.57-1.828zm9.66 3.058c0-2.57.94-3.73 2.27-3.73a1.671 1.671 0 01.87.236l.39-1.932a3.361 3.361 0 00-1.03-.168 2.985 2.985 0 00-2.5 1.512V3.76h-2.08v8.467h2.08V9.22zm7.18-5.594a2.7 2.7 0 00-1.95.722 2.392 2.392 0 00.96 4.032c.32.134.91.319 1.19.453a2.882 2.882 0 01.47.2.686.686 0 01.46.638.871.871 0 01-1.04.908 1.783 1.783 0 01-1.7-1.395l-1.66.891a3.894 3.894 0 001.26 1.6 3.334 3.334 0 002.1.688 2.9 2.9 0 002.16-.823 2.693 2.693 0 00.84-2 2.168 2.168 0 00-.52-1.378 1.934 1.934 0 00-.6-.436 5.082 5.082 0 00-.61-.319l-.72-.252-.6-.219a.974.974 0 01-.81-.823.7.7 0 01.77-.706 1.734 1.734 0 011.41.74l1.25-1.143a3.169 3.169 0 00-2.66-1.375zm9.83 7.509a4.634 4.634 0 006.28 0 4.811 4.811 0 000-6.266 4.588 4.588 0 00-6.28 0 4.811 4.811 0 000 6.269zm1.59-4.973a1.967 1.967 0 013.1 0 2.911 2.911 0 01.57 1.831 2.991 2.991 0 01-.57 1.848 1.993 1.993 0 01-3.1 0 2.991 2.991 0 01-.57-1.848 2.911 2.911 0 01.57-1.828zm9.67 3.058c0-2.57.94-3.73 2.26-3.73a1.708 1.708 0 01.88.236l.38-1.932a3.3 3.3 0 00-1.02-.168 2.973 2.973 0 00-2.5 1.512V3.76h-2.09v8.467h2.09V9.22zm13.3 3.141c2.49 0 3.86-1.7 3.86-4.368s-1.37-4.367-3.86-4.367a2.446 2.446 0 00-2.05 1.008V3.76h-2.08v11.894h2.08v-4.2a2.81 2.81 0 002.05.91zm1.13-2.469a1.757 1.757 0 01-1.42.689 1.736 1.736 0 01-1.41-.672 3.075 3.075 0 01-.53-1.916 3.021 3.021 0 01.53-1.9 1.8 1.8 0 012.83 0 3.552 3.552 0 010 3.807zm6.58-.672c0-2.57.94-3.73 2.27-3.73a1.7 1.7 0 01.87.236l.39-1.932a3.361 3.361 0 00-1.03-.168 2.973 2.973 0 00-2.5 1.512V3.76h-2.09v8.467h2.09V9.22zm12.05-1.411a4.68 4.68 0 00-.91-2.772 3.615 3.615 0 00-3.04-1.411c-2.9 0-4.06 2.352-4.06 4.367s1.16 4.368 4.06 4.368a3.868 3.868 0 003.85-2.469l-1.68-.622a2.3 2.3 0 01-2.05 1.311 1.945 1.945 0 01-2-1.916h5.83v-.856zm-3.95-2.4a1.762 1.762 0 011.82 1.613h-3.65a1.851 1.851 0 011.83-1.613zm8.26-1.78a2.7 2.7 0 00-1.95.722 2.392 2.392 0 00.96 4.032c.32.134.91.319 1.19.453a2.882 2.882 0 01.47.2.686.686 0 01.46.638.871.871 0 01-1.04.908 1.783 1.783 0 01-1.7-1.395l-1.66.891a3.894 3.894 0 001.26 1.6 3.334 3.334 0 002.1.688 2.9 2.9 0 002.16-.823 2.693 2.693 0 00.84-2 2.168 2.168 0 00-.52-1.378 1.934 1.934 0 00-.6-.436 5.082 5.082 0 00-.61-.319l-.72-.252-.6-.219a.974.974 0 01-.81-.823.7.7 0 01.77-.706 1.734 1.734 0 011.41.74l1.25-1.143a3.169 3.169 0 00-2.66-1.378zM204 7.812a4.737 4.737 0 00-.9-2.772 3.641 3.641 0 00-3.04-1.411c-2.91 0-4.07 2.352-4.07 4.367s1.16 4.368 4.07 4.368a3.864 3.864 0 003.84-2.469l-1.68-.622a2.291 2.291 0 01-2.05 1.311 1.937 1.937 0 01-1.99-1.916H204v-.856zm-3.94-2.4a1.753 1.753 0 011.81 1.613h-3.64a1.851 1.851 0 011.83-1.616zm7.73 3.814c0-2.57.95-3.73 2.27-3.73a1.734 1.734 0 01.88.236l.38-1.932a3.3 3.3 0 00-1.02-.168 3 3 0 00-2.51 1.512V3.766h-2.08v8.467h2.08V9.226zm7.03 3.007h1.88l2.87-8.467h-2.1l-1.71 5.9-1.71-5.9h-2.1zm7.2-5.846a1.366 1.366 0 011.46-.975 1.216 1.216 0 011.48 1.244v.369h-1.41c-2.16 0-3.62 1.092-3.62 2.772a2.409 2.409 0 002.57 2.57 3.208 3.208 0 002.61-1.209l.22 1.075h1.71V7.176c0-2.368-1.19-3.544-3.56-3.544a3.048 3.048 0 00-3.23 2.352zm.1 3.376c0-.722.48-1.092 1.44-1.092h1.4v.168a1.542 1.542 0 01-.61 1.26 2.062 2.062 0 01-1.36.488.808.808 0 01-.87-.827zm11.2.622a1.679 1.679 0 01-.8.2c-.74 0-1.11-.37-1.11-1.378V5.545h2.23V3.764h-2.23V.337l-2.09 1.31v2.117h-1.31v1.781h1.31v3.7a2.813 2.813 0 003.11 3.124 3.252 3.252 0 001.38-.3zm1.85-8.1a1.356 1.356 0 100-1.915 1.375 1.375 0 000 1.915zm-.08 9.945h2.08V3.763h-2.08v8.467zm6.03 0H243l2.88-8.467h-2.1l-1.72 5.9-1.71-5.9h-2.1zm13.12-4.418a4.749 4.749 0 00-.91-2.772 3.641 3.641 0 00-3.04-1.411c-2.91 0-4.07 2.352-4.07 4.367s1.16 4.368 4.07 4.368a3.855 3.855 0 003.84-2.469l-1.68-.622a2.291 2.291 0 01-2.05 1.311 1.943 1.943 0 01-1.99-1.916h5.83v-.856zm-3.95-2.4a1.753 1.753 0 011.81 1.613h-3.64a1.851 1.851 0 011.83-1.616zm8.26-1.78a2.687 2.687 0 00-1.95.722 2.381 2.381 0 00.96 4.032c.32.134.9.319 1.19.453a2.882 2.882 0 01.47.2.676.676 0 01.45.638.867.867 0 01-1.04.908 1.791 1.791 0 01-1.7-1.395l-1.66.891a3.894 3.894 0 001.26 1.6 3.354 3.354 0 002.1.688 2.943 2.943 0 002.17-.823 2.731 2.731 0 00.84-2 2.168 2.168 0 00-.52-1.378 1.879 1.879 0 00-.61-.436 6.1 6.1 0 00-.6-.319l-.72-.252-.61-.219a.974.974 0 01-.81-.823.713.713 0 01.78-.706 1.761 1.761 0 011.41.74l1.24-1.143a3.164 3.164 0 00-2.65-1.381zm5.1 8.3a1.423 1.423 0 100-2.015 1.453 1.453 0 000 2.01z" fill="#002855" fill-rule="evenodd"/></svg><svg width="167.16" height="7.34" viewBox="-1 -1 167.16 7.34" y="42.32" xmlns="http://www.w3.org/2000/svg"><path data-name="FRESH FRUIT ADDED AS A SERVING SUGGESTION." d="M-.01.048v5.25h.66V2.875h1.94v-.63H.65V.675h2.39v-.63H-.01zm6.92 5.25h.78l-1.57-2.52a1.287 1.287 0 001.1-1.342A1.367 1.367 0 005.67.048H3.92v5.25h.66V2.823h.79zM5.69.678a.762.762 0 110 1.515H4.58V.675h1.11zM8.6.048v5.25h3.09v-.63H9.26V2.816h1.91v-.63H9.26V.675h2.36v-.63H8.6zm6.73.78a1.377 1.377 0 00-1.36-.84 1.3 1.3 0 00-1.29 1.335 1.657 1.657 0 001.27 1.463 1.312 1.312 0 01.99 1.02.98.98 0 01-.2.622.947.947 0 01-.71.3 1.214 1.214 0 01-1.13-1.132l-.57.345a1.719 1.719 0 001.7 1.417 1.526 1.526 0 001.57-1.567 1.741 1.741 0 00-1.25-1.508 1.3 1.3 0 01-1.01-1.012.635.635 0 01.63-.653.874.874 0 01.83.555zm4.36-.78v2.145h-2.4V.048h-.66v5.25h.66V2.823h2.4v2.475h.66V.048h-.66zm4.27 0v5.25h.66V2.875h1.95v-.63h-1.95V.675h2.4v-.63h-3.06zm6.92 5.25h.78l-1.56-2.52a1.279 1.279 0 001.09-1.342A1.358 1.358 0 0029.65.048H27.9v5.25h.66V2.823h.79zM29.66.678a.763.763 0 110 1.515h-1.1V.675h1.1zm2.75 2.835a1.835 1.835 0 103.67 0V.048h-.66v3.51a1.175 1.175 0 01-2.35 0V.048h-.66v3.465zM37.42.048v5.25h.66V.048h-.66zm1.47.63h1.52v4.62h.66V.675h1.51v-.63h-3.69v.63zm6.05 4.62h.66l.47-1.4h2.01l.46 1.4h.66L47.39.048h-.63zm1.34-2.032l.79-2.363.8 2.363h-1.59zM50.01.048v5.25h1.44a2.634 2.634 0 000-5.25h-1.44zm1.33.63a2 2 0 010 3.99h-.67V.675h.67zm3.62-.63v5.25h1.44a2.634 2.634 0 000-5.25h-1.44zm1.33.63a2 2 0 010 3.99h-.67V.675h.67zm3.62-.63v5.25H63v-.63h-2.43V2.816h1.9v-.63h-1.9V.675h2.35v-.63h-3.01zm4.05 0v5.25h1.44a2.634 2.634 0 000-5.25h-1.44zm1.33.63a2 2 0 010 3.99h-.67V.675h.67zm5.19 4.62h.66l.46-1.4h2.01l.47 1.4h.66L72.92.048h-.63zm1.33-2.032l.8-2.363.79 2.363h-1.59zM78.13.828a1.377 1.377 0 00-1.36-.84 1.3 1.3 0 00-1.29 1.335 1.657 1.657 0 001.27 1.463 1.312 1.312 0 01.99 1.02.98.98 0 01-.2.622.931.931 0 01-.71.3 1.222 1.222 0 01-1.13-1.132l-.57.345a1.727 1.727 0 001.7 1.417 1.526 1.526 0 001.57-1.567 1.741 1.741 0 00-1.25-1.508 1.311 1.311 0 01-1.01-1.012.635.635 0 01.63-.653.866.866 0 01.83.555zm2.88 4.47h.66l.46-1.4h2.01l.47 1.4h.66L83.45.048h-.63zm1.33-2.032l.8-2.363.79 2.363h-1.59zM90.82.828a1.4 1.4 0 00-1.37-.84 1.3 1.3 0 00-1.29 1.335 1.656 1.656 0 001.28 1.463 1.312 1.312 0 01.99 1.02.986.986 0 01-.21.622.931.931 0 01-.71.3 1.213 1.213 0 01-1.12-1.132l-.57.345a1.709 1.709 0 001.69 1.417 1.543 1.543 0 001.58-1.567 1.738 1.738 0 00-1.26-1.508 1.311 1.311 0 01-1.01-1.012.642.642 0 01.63-.653.858.858 0 01.83.555zm1.29-.78v5.25h3.09v-.63h-2.43V2.816h1.91v-.63h-1.91V.675h2.36v-.63h-3.02zm7.04 5.25h.78l-1.56-2.52a1.279 1.279 0 001.09-1.342A1.358 1.358 0 0097.92.048h-1.75v5.25h.66V2.823h.79zM97.93.678a.763.763 0 110 1.515h-1.1V.675h1.1zm5.76-.63l-1.44 4.313-1.44-4.313h-.7l1.81 5.25h.66l1.81-5.25h-.7zm1.49 0v5.25h.66V.048h-.66zm5.19 0v4.1L108 .048h-.78v5.25h.66V1.211l2.37 4.087h.78V.048h-.66zm4.45 3.233h1.13a1.4 1.4 0 01-1.45 1.447c-.96 0-1.68-.7-1.68-2.055s.72-2.055 1.68-2.055a1.461 1.461 0 011.43 1.148l.64-.188a2.007 2.007 0 00-2.07-1.59 2.708 2.708 0 00-.03 5.37 1.646 1.646 0 001.48-.78l.07.72h.56V2.651h-1.76v.63zm7.72-2.453a1.4 1.4 0 00-1.37-.84 1.3 1.3 0 00-1.29 1.335 1.656 1.656 0 001.28 1.463 1.312 1.312 0 01.99 1.02.986.986 0 01-.21.622.931.931 0 01-.71.3 1.213 1.213 0 01-1.12-1.132l-.57.345a1.709 1.709 0 001.69 1.417 1.543 1.543 0 001.58-1.567 1.738 1.738 0 00-1.26-1.508 1.311 1.311 0 01-1.01-1.012.642.642 0 01.63-.653.858.858 0 01.83.555zm1.19 2.685a1.835 1.835 0 103.67 0V.048h-.66v3.51a1.175 1.175 0 01-2.35 0V.048h-.66v3.465zm7.39-.232h1.14a1.4 1.4 0 01-1.45 1.447c-.97 0-1.69-.7-1.69-2.055s.72-2.055 1.69-2.055a1.451 1.451 0 011.42 1.148l.64-.188a2 2 0 00-2.06-1.59 2.708 2.708 0 00-.03 5.37 1.658 1.658 0 001.48-.78l.06.72h.57V2.651h-1.77v.63zm5.38 0h1.13a1.392 1.392 0 01-1.44 1.447c-.97 0-1.69-.7-1.69-2.055s.72-2.055 1.69-2.055a1.459 1.459 0 011.42 1.148l.64-.188a2 2 0 00-2.06-1.59 2.708 2.708 0 00-.03 5.37 1.628 1.628 0 001.47-.78l.07.72h.56V2.651h-1.76v.63zm3.02-3.233v5.25h3.09v-.63h-2.43V2.816h1.91v-.63h-1.91V.675h2.36v-.63h-3.02zm6.73.78a1.391 1.391 0 00-1.37-.84 1.3 1.3 0 00-1.29 1.335 1.668 1.668 0 001.28 1.463 1.312 1.312 0 01.99 1.02 1.043 1.043 0 01-.2.622.969.969 0 01-.72.3 1.213 1.213 0 01-1.12-1.132l-.57.345a1.709 1.709 0 001.69 1.417 1.543 1.543 0 001.58-1.567 1.741 1.741 0 00-1.25-1.508 1.31 1.31 0 01-1.02-1.012.642.642 0 01.63-.653.878.878 0 01.84.555zm.74-.15h1.52v4.62h.66V.675h1.51v-.63h-3.69v.63zm4.51-.63v5.25h.66V.048h-.66zm4.12-.06a2.707 2.707 0 102.36 2.685 2.407 2.407 0 00-2.36-2.685zm0 .63c.93 0 1.67.683 1.67 2.055s-.74 2.055-1.67 2.055-1.67-.682-1.67-2.055.74-2.055 1.67-2.055zm6.6-.57v4.1l-2.37-4.1h-.77v5.25h.66V1.211l2.37 4.087h.77V.048h-.66zm1.98 4.808a.459.459 0 00.47.472.467.467 0 00.48-.472.472.472 0 00-.48-.473.464.464 0 00-.47.473z" fill="#002855" fill-rule="evenodd"/></svg></svg>