<svg width="179" height="106" xmlns="http://www.w3.org/2000/svg" xmlns:xlink="http://www.w3.org/1999/xlink"><svg width="178.13" height="53.13" viewBox="-1 -1 178.13 53.13" xmlns="http://www.w3.org/2000/svg"><path data-name="Goodness you can taste." d="M17.58 20.164V10.117h-7.29v3.074h3.7a4.2 4.2 0 01-4.47 3.785c-3.33 0-5.63-2.22-5.63-6.774 0-4.44 2.33-6.774 5.72-6.774 2.25 0 3.87 1.253 4.9 3.757l3.38-.882A8.168 8.168 0 009.61.013a9.256 9.256 0 00-6.72 2.675C1.04 4.482.13 6.988.13 10.202s.88 5.721 2.68 7.514a8.835 8.835 0 006.52 2.675 5.4 5.4 0 004.83-2.362l.32 2.135h3.1zm4.71-1.85a7.852 7.852 0 0010.64 0 8.136 8.136 0 000-10.616 7.772 7.772 0 00-10.64 0 8.167 8.167 0 000 10.616zm2.7-8.425a3.32 3.32 0 015.24 0 4.9 4.9 0 01.97 3.1 5.034 5.034 0 01-.97 3.131 3.367 3.367 0 01-5.24 0 5.028 5.028 0 01-.96-3.131 4.89 4.89 0 01.96-3.1zm13.79 8.425a7.865 7.865 0 0010.65 0 8.167 8.167 0 000-10.616 7.785 7.785 0 00-10.65 0 8.167 8.167 0 000 10.616zm2.71-8.425a3.31 3.31 0 015.23 0 4.837 4.837 0 01.97 3.1 4.973 4.973 0 01-.97 3.131 3.357 3.357 0 01-5.23 0 4.973 4.973 0 01-.97-3.131 4.837 4.837 0 01.97-3.1zm18.44-4.3c-4.21 0-6.55 2.874-6.55 7.4s2.34 7.4 6.55 7.4a4.14 4.14 0 003.47-1.707v1.48h3.53V.013H63.4v7.115a4.733 4.733 0 00-3.47-1.536zm-1.91 4.183a2.98 2.98 0 012.39-1.167 2.889 2.889 0 012.37 1.167 4.959 4.959 0 01.93 3.216 5.042 5.042 0 01-.93 3.245 2.863 2.863 0 01-2.37 1.138 2.979 2.979 0 01-2.39-1.166 5.973 5.973 0 010-6.43zm12.61 10.389h3.53V14.44c0-3.615 1.45-5.835 3.27-5.835 1.37 0 2.05.8 2.05 2.363v9.193h3.53V9.918c0-2.818-1.77-4.326-4.41-4.326a5.229 5.229 0 00-4.44 2.533V5.819h-3.53v14.345zm28.62-7.486a8.011 8.011 0 00-1.53-4.7 6.166 6.166 0 00-5.15-2.39c-4.93 0-6.89 3.984-6.89 7.4s1.96 7.4 6.89 7.4a6.54 6.54 0 006.51-4.183l-2.84-1.054a3.9 3.9 0 01-3.47 2.22 3.293 3.293 0 01-3.39-3.244h9.87v-1.452zm-6.68-4.07c1.65 0 2.67.911 3.07 2.733h-6.18a3.147 3.147 0 013.11-2.732zm13.88-3.016a4.578 4.578 0 00-3.3 1.223 3.958 3.958 0 00-1.28 2.96c0 2.05 1.08 3.1 2.9 3.871.54.228 1.54.541 2.02.768a4.562 4.562 0 01.8.342 1.155 1.155 0 01.77 1.082c0 1.024-.6 1.536-1.76 1.536-1.34 0-2.31-.8-2.88-2.362l-2.82 1.509a6.647 6.647 0 002.14 2.7 5.666 5.666 0 003.56 1.167 4.968 4.968 0 003.67-1.394 4.6 4.6 0 001.42-3.387 3.689 3.689 0 00-.88-2.334 3.14 3.14 0 00-1.03-.74 9.145 9.145 0 00-1.02-.541l-1.23-.427-1.02-.37a1.654 1.654 0 01-1.37-1.394 1.2 1.2 0 011.31-1.2 2.962 2.962 0 012.39 1.253l2.11-1.936a5.357 5.357 0 00-4.5-2.323zm12.57 0a4.586 4.586 0 00-3.31 1.223 3.958 3.958 0 00-1.28 2.96c0 2.05 1.09 3.1 2.91 3.871.54.228 1.53.541 2.02.768a4.815 4.815 0 01.79.342 1.155 1.155 0 01.77 1.082c0 1.024-.6 1.536-1.76 1.536-1.34 0-2.31-.8-2.88-2.362l-2.81 1.509a6.537 6.537 0 002.13 2.7 5.686 5.686 0 003.56 1.167 4.952 4.952 0 003.67-1.394 4.6 4.6 0 001.42-3.387 3.634 3.634 0 00-.88-2.334 3.193 3.193 0 00-1.02-.74 10.025 10.025 0 00-1.03-.541l-1.22-.427-1.03-.37a1.641 1.641 0 01-1.36-1.394 1.193 1.193 0 011.31-1.2 2.989 2.989 0 012.39 1.253l2.1-1.936a5.352 5.352 0 00-4.49-2.323zm18.75 13.661l-2.47 6.717h3.41l7.4-20.151h-3.53l-3.13 8.994-3.33-8.994h-3.56zm10.69-.939a7.852 7.852 0 0010.64 0 8.167 8.167 0 000-10.616 7.772 7.772 0 00-10.64 0 8.136 8.136 0 000 10.619zm2.7-8.425a3.32 3.32 0 015.24 0 4.89 4.89 0 01.96 3.1 5.028 5.028 0 01-.96 3.131 3.367 3.367 0 01-5.24 0 4.973 4.973 0 01-.97-3.131 4.837 4.837 0 01.97-3.097zm24.95-4.07h-3.52v5.721c0 3.614-1.46 5.834-3.28 5.834-1.36 0-2.05-.8-2.05-2.362V5.816h-3.53v10.246c0 2.818 1.77 4.326 4.42 4.326a5.256 5.256 0 004.44-2.533v2.306h3.52V5.819zM10.35 45.751a3.667 3.667 0 01-3.36 2.362c-2.16 0-3.3-1.764-3.3-4.383s1.14-4.383 3.3-4.383a3.667 3.667 0 013.36 2.362l3.16-1.28c-1.11-2.733-3.27-4.1-6.52-4.1a6.517 6.517 0 00-5.18 2.106 8.61 8.61 0 000 10.588 6.517 6.517 0 005.18 2.106c3.25 0 5.41-1.366 6.52-4.1zm8.42-4.753a2.326 2.326 0 012.47-1.651c1.68 0 2.51.712 2.51 2.106v.626h-2.39c-3.64 0-6.12 1.85-6.12 4.7a4.076 4.076 0 004.35 4.355 5.419 5.419 0 004.42-2.049l.37 1.821h2.9v-8.57c0-4.013-2.02-6.006-6.04-6.006-2.87 0-5 1.594-5.46 3.985zm.17 5.721c0-1.224.82-1.85 2.45-1.85h2.36v.284a2.578 2.578 0 01-1.03 2.135 3.5 3.5 0 01-2.3.825 1.368 1.368 0 01-1.48-1.394zm11.65 4.187h3.53v-5.72c0-3.615 1.45-5.835 3.27-5.835 1.37 0 2.05.8 2.05 2.362v9.193h3.53v-10.25c0-2.817-1.76-4.326-4.41-4.326a5.256 5.256 0 00-4.44 2.533v-2.3h-3.53v14.343zm31-3.13a2.9 2.9 0 01-1.37.341c-1.25 0-1.88-.626-1.88-2.334v-6.2h3.79v-3.017h-3.79V30.76l-3.53 2.22v3.586h-2.22v3.017h2.22v6.261c0 3.5 1.97 5.294 5.27 5.294a5.482 5.482 0 002.33-.512zm5.62-6.774a2.337 2.337 0 012.48-1.651c1.68 0 2.5.712 2.5 2.106v.626H69.8c-3.64 0-6.12 1.85-6.12 4.7a4.079 4.079 0 004.36 4.355 5.413 5.413 0 004.41-2.049l.37 1.821h2.9v-8.574c0-4.013-2.02-6.006-6.03-6.006-2.88 0-5.01 1.594-5.47 3.985zm.17 5.721c0-1.224.83-1.85 2.45-1.85h2.36v.284a2.6 2.6 0 01-1.02 2.135 3.527 3.527 0 01-2.31.825 1.368 1.368 0 01-1.48-1.398zm15.85-10.389a4.579 4.579 0 00-3.3 1.224 3.957 3.957 0 00-1.28 2.96c0 2.049 1.08 3.1 2.9 3.871.54.227 1.54.54 2.02.768a4.488 4.488 0 01.8.342 1.155 1.155 0 01.77 1.081c0 1.025-.6 1.537-1.76 1.537-1.34 0-2.31-.8-2.88-2.362l-2.82 1.508a6.643 6.643 0 002.14 2.7 5.666 5.666 0 003.56 1.167 4.964 4.964 0 003.67-1.4 4.594 4.594 0 001.42-3.386 3.687 3.687 0 00-.88-2.334 3.14 3.14 0 00-1.03-.74 8.976 8.976 0 00-1.02-.541l-1.23-.427-1.02-.37a1.654 1.654 0 01-1.37-1.395 1.2 1.2 0 011.31-1.195 2.963 2.963 0 012.39 1.252l2.11-1.935a5.355 5.355 0 00-4.5-2.329zm15.39 11.442a2.9 2.9 0 01-1.37.341c-1.25 0-1.88-.626-1.88-2.334v-6.2h3.79v-3.017h-3.79V30.76l-3.53 2.22v3.586h-2.22v3.017h2.22v6.261c0 3.5 1.97 5.294 5.27 5.294a5.482 5.482 0 002.33-.512zm15.49-4.355a8.022 8.022 0 00-1.54-4.7 6.164 6.164 0 00-5.15-2.391c-4.93 0-6.89 3.985-6.89 7.4s1.96 7.4 6.89 7.4a6.541 6.541 0 006.51-4.184l-2.84-1.053a3.9 3.9 0 01-3.47 2.22 3.293 3.293 0 01-3.39-3.244h9.88v-1.452zm-6.69-4.07c1.65 0 2.67.911 3.07 2.732h-6.18a3.147 3.147 0 013.11-2.736zm9.62 11.043a2.417 2.417 0 100-3.415 2.481 2.481 0 000 3.411z" fill="#002855" fill-rule="evenodd"/></svg><svg width="132.78" height="34.19" viewBox="-1 -1 132.78 34.19" y="53.13" xmlns="http://www.w3.org/2000/svg"><path data-name="No artifical flavors or preservatives." d="M7.01 7.817L2.93.47H.75v11.132h2.07V4.255l4.08 7.347h2.18V.47H7.01v7.347zm5.07 2.751a4.392 4.392 0 005.95 0 4.579 4.579 0 000-5.931 4.348 4.348 0 00-5.95 0 4.547 4.547 0 000 5.931zm1.51-4.707a1.725 1.725 0 011.46-.715 1.756 1.756 0 011.47.715 2.753 2.753 0 01.54 1.733 2.833 2.833 0 01-.54 1.75 1.784 1.784 0 01-1.47.7 1.753 1.753 0 01-1.46-.7 2.771 2.771 0 01-.54-1.75 2.694 2.694 0 01.54-1.733zm12.74.207a1.291 1.291 0 011.38-.922 1.148 1.148 0 011.4 1.176v.35h-1.34c-2.03 0-3.42 1.034-3.42 2.624a2.282 2.282 0 002.44 2.433 3.026 3.026 0 002.46-1.145l.21 1.018h1.62V6.815c0-2.242-1.13-3.355-3.37-3.355a2.872 2.872 0 00-3.05 2.226zm.09 3.2c0-.684.46-1.034 1.37-1.034h1.32v.159a1.45 1.45 0 01-.57 1.193 1.987 1.987 0 01-1.29.461.764.764 0 01-.83-.783zm8.6-.509c0-2.433.89-3.53 2.15-3.53a1.63 1.63 0 01.83.223l.36-1.829a3.185 3.185 0 00-.97-.159 2.82 2.82 0 00-2.37 1.431v-1.3h-1.97v8.015h1.97V8.755zm9.1 1.1a1.554 1.554 0 01-.76.191c-.7 0-1.05-.35-1.05-1.3V5.284h2.12V3.598h-2.12V.354l-1.97 1.241v2H39.1v1.686h1.24v3.5a2.663 2.663 0 002.94 2.958 3.123 3.123 0 001.31-.286zm1.82-7.664a1.281 1.281 0 100-1.813 1.292 1.292 0 000 1.806zm-.08 9.414h1.97V3.594h-1.97v8.015zm4.32-6.329v6.329h1.98V5.28h1.68V3.594h-1.68v-.556a.844.844 0 01.9-1 2.584 2.584 0 01.96.222l.43-1.59a3.212 3.212 0 00-1.5-.318 2.526 2.526 0 00-2.77 2.831v.413h-1.01v1.686h1.01zm5.56-3.085a1.284 1.284 0 100-1.813 1.3 1.3 0 000 1.806zm-.08 9.414h1.98V3.594h-1.98v8.015zm9.31-2.879a2.051 2.051 0 01-1.88 1.32c-1.21 0-1.84-.986-1.84-2.449s.63-2.448 1.84-2.448a2.052 2.052 0 011.88 1.319l1.76-.715a3.551 3.551 0 00-3.64-2.29 3.629 3.629 0 00-2.89 1.177 4.8 4.8 0 000 5.915 3.632 3.632 0 002.89 1.177 3.551 3.551 0 003.64-2.29zm4.82-2.655a1.305 1.305 0 011.38-.922 1.148 1.148 0 011.4 1.176v.35h-1.33c-2.04 0-3.42 1.034-3.42 2.624a2.279 2.279 0 002.43 2.433 3.032 3.032 0 002.47-1.145l.2 1.018h1.62V6.815c0-2.242-1.12-3.355-3.37-3.355a2.879 2.879 0 00-3.05 2.226zm.1 3.2c0-.684.46-1.034 1.36-1.034h1.32V8.4A1.45 1.45 0 0172 9.593a1.968 1.968 0 01-1.29.461.761.761 0 01-.82-.79zm6.62 2.338h1.97V.343h-1.97v11.259zm8.65-6.329v6.329h1.97V5.284h1.68V3.598h-1.68v-.556a.846.846 0 01.91-1 2.581 2.581 0 01.95.222l.43-1.59a3.212 3.212 0 00-1.5-.318 2.523 2.523 0 00-2.76 2.831V3.6h-1.02v1.686h1.02zm5.42 6.329h1.97V.343h-1.97v11.259zm5.55-5.534a1.305 1.305 0 011.38-.922 1.148 1.148 0 011.4 1.176v.35h-1.33c-2.04 0-3.42 1.034-3.42 2.624a2.279 2.279 0 002.43 2.433 3.032 3.032 0 002.47-1.145l.2 1.018h1.62V6.815c0-2.242-1.12-3.355-3.37-3.355a2.879 2.879 0 00-3.05 2.226zm.1 3.2c0-.684.46-1.034 1.36-1.034h1.32v.159a1.45 1.45 0 01-.57 1.193 1.968 1.968 0 01-1.29.461.761.761 0 01-.82-.794zm8.05 2.338h1.78l2.72-8.015h-1.99l-1.62 5.582-1.62-5.582h-1.99zm5.99-1.034a4.392 4.392 0 005.95 0 4.547 4.547 0 000-5.931 4.348 4.348 0 00-5.95 0 4.579 4.579 0 000 5.916zm1.52-4.707a1.848 1.848 0 012.92 0 2.694 2.694 0 01.54 1.733 2.771 2.771 0 01-.54 1.75 1.874 1.874 0 01-2.92 0 2.777 2.777 0 01-.55-1.75 2.7 2.7 0 01.55-1.748zm9.2 2.894c0-2.433.89-3.53 2.15-3.53a1.63 1.63 0 01.83.223l.36-1.829a3.185 3.185 0 00-.97-.159 2.833 2.833 0 00-2.37 1.431v-1.3h-1.97v8.015h1.97V8.755zm6.86-5.295a2.537 2.537 0 00-1.84.684 2.255 2.255 0 00.9 3.816c.31.127.86.3 1.13.429a2.461 2.461 0 01.45.191.648.648 0 01.43.6.826.826 0 01-.99.858 1.674 1.674 0 01-1.6-1.32l-1.58.843a3.766 3.766 0 001.19 1.511 3.2 3.2 0 001.99.652 2.766 2.766 0 002.05-.779 2.556 2.556 0 00.8-1.893 2.09 2.09 0 00-.49-1.3 1.927 1.927 0 00-.58-.413 4.848 4.848 0 00-.57-.3l-.68-.239-.58-.206a.929.929 0 01-.76-.78.666.666 0 01.73-.667 1.666 1.666 0 011.34.7l1.18-1.081a3 3 0 00-2.52-1.321zM1.1 27.929a4.392 4.392 0 005.95 0 4.579 4.579 0 000-5.931 4.348 4.348 0 00-5.95 0 4.547 4.547 0 000 5.916zm1.51-4.707a1.847 1.847 0 012.92 0 2.7 2.7 0 01.55 1.733 2.774 2.774 0 01-.55 1.749 1.873 1.873 0 01-2.92 0 2.768 2.768 0 01-.54-1.749 2.694 2.694 0 01.54-1.748zm9.21 2.894c0-2.433.89-3.53 2.14-3.53a1.594 1.594 0 01.83.223l.37-1.829a3.185 3.185 0 00-.97-.159 2.82 2.82 0 00-2.37 1.431v-1.3H9.84v8.015h1.98V26.12zm12.59 2.974c2.35 0 3.66-1.606 3.66-4.135s-1.31-4.134-3.66-4.134a2.307 2.307 0 00-1.94.954v-.827H20.5v11.259h1.97v-3.976a2.654 2.654 0 001.94.844zm1.06-2.338a1.706 1.706 0 01-2.67.016 2.918 2.918 0 01-.51-1.813 2.869 2.869 0 01.51-1.8 1.667 1.667 0 011.34-.652 1.648 1.648 0 011.33.652 3.311 3.311 0 010 3.582zm6.3-.636c0-2.433.89-3.53 2.14-3.53a1.594 1.594 0 01.83.223l.37-1.829a3.185 3.185 0 00-.97-.159 2.82 2.82 0 00-2.37 1.431v-1.3H29.8v8.015h1.97V26.12zm11.47-1.336a4.478 4.478 0 00-.86-2.623 3.44 3.44 0 00-2.88-1.336c-2.75 0-3.85 2.226-3.85 4.134s1.1 4.135 3.85 4.135a3.655 3.655 0 003.64-2.338l-1.59-.588a2.169 2.169 0 01-1.94 1.24 1.843 1.843 0 01-1.89-1.813h5.52v-.826zm-3.74-2.274a1.666 1.666 0 011.72 1.527h-3.45a1.746 1.746 0 011.73-1.542zm7.88-1.685a2.517 2.517 0 00-1.84.684 2.255 2.255 0 00.9 3.816c.3.127.86.3 1.13.429a3.236 3.236 0 01.45.191.648.648 0 01.43.6.826.826 0 01-.99.859 1.692 1.692 0 01-1.61-1.32l-1.57.843a3.773 3.773 0 001.19 1.511 3.2 3.2 0 001.99.652 2.766 2.766 0 002.05-.779 2.556 2.556 0 00.8-1.893 2.037 2.037 0 00-.5-1.3 1.744 1.744 0 00-.57-.413 4.7 4.7 0 00-.57-.3l-.69-.239-.57-.207a.914.914 0 01-.76-.779.666.666 0 01.73-.668 1.667 1.667 0 011.34.7l1.17-1.081a2.984 2.984 0 00-2.51-1.321zm11.64 3.959a4.409 4.409 0 00-.86-2.623 3.421 3.421 0 00-2.87-1.336c-2.75 0-3.85 2.226-3.85 4.134s1.1 4.135 3.85 4.135a3.664 3.664 0 003.64-2.338l-1.59-.588a2.179 2.179 0 01-1.94 1.24 1.831 1.831 0 01-1.89-1.813h5.51v-.826zm-3.73-2.274A1.657 1.657 0 0157 24.033h-3.45a1.763 1.763 0 011.74-1.542zm7.38 3.61c0-2.433.89-3.53 2.15-3.53a1.621 1.621 0 01.83.223l.36-1.829a3.185 3.185 0 00-.97-.159 2.82 2.82 0 00-2.37 1.431v-1.3H60.7v8.015h1.97V26.12zm6.7 2.847h1.78l2.72-8.015h-1.99l-1.62 5.582-1.62-5.582h-1.99zm6.88-5.534a1.292 1.292 0 011.38-.923 1.149 1.149 0 011.4 1.177v.35h-1.34c-2.03 0-3.42 1.034-3.42 2.624a2.282 2.282 0 002.44 2.433 3.026 3.026 0 002.46-1.145l.21 1.018H81v-4.787c0-2.242-1.13-3.355-3.37-3.355a2.872 2.872 0 00-3.05 2.226zm.09 3.2c0-.684.46-1.034 1.37-1.034h1.32v.159a1.45 1.45 0 01-.57 1.193 1.987 1.987 0 01-1.29.461.764.764 0 01-.83-.798zm10.67.588a1.582 1.582 0 01-.76.191c-.7 0-1.05-.35-1.05-1.3v-3.466h2.11v-1.686H85.2v-3.244l-1.98 1.24v2h-1.24v1.686h1.24v3.5a2.666 2.666 0 002.95 2.958 3.045 3.045 0 001.3-.286zm1.81-7.664a1.284 1.284 0 100-1.813 1.3 1.3 0 000 1.794zm-.08 9.414h1.98v-8.015h-1.98v8.015zm5.78 0h1.78l2.72-8.015h-1.99l-1.62 5.582-1.62-5.582H91.8zm12.47-4.183a4.467 4.467 0 00-.85-2.623 3.454 3.454 0 00-2.88-1.336c-2.75 0-3.85 2.226-3.85 4.134s1.1 4.135 3.85 4.135a3.664 3.664 0 003.64-2.338l-1.59-.588a2.179 2.179 0 01-1.94 1.24 1.831 1.831 0 01-1.89-1.813h5.51v-.83zm-3.73-2.274a1.657 1.657 0 011.71 1.527h-3.45a1.763 1.763 0 011.74-1.546zm7.88-1.685a2.557 2.557 0 00-1.85.684 2.263 2.263 0 00.91 3.816c.3.127.86.3 1.13.429a2.7 2.7 0 01.44.191.648.648 0 01.43.6.822.822 0 01-.99.859 1.69 1.69 0 01-1.6-1.32l-1.58.843a3.715 3.715 0 001.2 1.511 3.148 3.148 0 001.98.652 2.789 2.789 0 002.06-.779 2.585 2.585 0 00.79-1.893 2.034 2.034 0 00-.49-1.3 1.744 1.744 0 00-.57-.413 5.491 5.491 0 00-.58-.3l-.68-.239-.57-.207a.927.927 0 01-.77-.779.675.675 0 01.74-.668 1.649 1.649 0 011.33.7l1.18-1.081a3 3 0 00-2.51-1.325zm4.89 7.855a1.35 1.35 0 100-1.908 1.385 1.385 0 000 1.889z" fill="#002855" fill-rule="evenodd"/></svg><svg width="95.62" height="18.38" viewBox="-1 -1 95.62 18.38" y="87.32" xmlns="http://www.w3.org/2000/svg"><path data-name="FRESH FRUIT ADDED AS A SERVING SUGGESTION." d="M.7.061v5.834h.73V3.203h2.16v-.7H1.43V.761h2.66v-.7H.7zm7.7 5.834h.87l-1.75-2.8a1.426 1.426 0 001.22-1.492A1.513 1.513 0 007.02.061H5.08v5.834h.74v-2.75h.87zM7.04.761a.847.847 0 110 1.684H5.82V.761h1.22zm3.25-.7v5.834h3.44v-.7h-2.7V3.136h2.11v-.7h-2.11V.761h2.61v-.7h-3.35zm7.49.867a1.546 1.546 0 00-1.52-.933 1.44 1.44 0 00-1.43 1.483 1.846 1.846 0 001.41 1.625 1.454 1.454 0 011.1 1.133 1.118 1.118 0 01-.22.692 1.039 1.039 0 01-.79.333 1.349 1.349 0 01-1.25-1.258l-.64.383a1.917 1.917 0 001.89 1.575 1.705 1.705 0 001.75-1.741 1.942 1.942 0 00-1.39-1.675c-.62-.309-1.13-.55-1.13-1.125a.707.707 0 01.7-.725.976.976 0 01.93.616zm4.85-.867v2.384h-2.67V.061h-.73v5.834h.73v-2.75h2.67v2.75h.73V.061h-.73zm4.75 0v5.834h.73V3.203h2.16v-.7h-2.16V.761h2.66v-.7h-3.39zm7.7 5.834h.86l-1.74-2.8a1.426 1.426 0 001.22-1.492A1.513 1.513 0 0033.7.061h-1.94v5.834h.73v-2.75h.88zM33.72.761a.847.847 0 110 1.684h-1.23V.761h1.23zm3.06 3.15a2.045 2.045 0 104.09 0V.061h-.74v3.9a1.305 1.305 0 01-2.61 0v-3.9h-.74v3.85zm5.58-3.85v5.834h.74V.061h-.74zm1.64.7h1.69v5.134h.73V.761h1.68v-.7H44v.7zm8.75-.7l-2.02 5.834h.73l.52-1.559h2.23l.52 1.559h.73L53.45.061h-.7zm.35.95l.88 2.625h-1.77zm3.27-.95v5.834h1.6a2.927 2.927 0 000-5.834h-1.6zm1.48.7a2.227 2.227 0 010 4.434h-.75V.761h.75zm4.03-.7v5.834h1.6a2.927 2.927 0 000-5.834h-1.6zm1.47.7a2.226 2.226 0 010 4.434h-.74V.761h.74zm4.03-.7v5.834h3.44v-.7h-2.7V3.136h2.11v-.7h-2.11V.761h2.61v-.7h-3.35zm4.52 0v5.834h1.6a2.927 2.927 0 000-5.834h-1.6zm1.47.7a2.226 2.226 0 010 4.434h-.74V.761h.74zm7.79-.7l-2.02 5.834h.73l.52-1.559h2.23l.52 1.559h.73L81.86.061h-.7zm.35.95l.88 2.625h-1.77zm6.14-.083a1.532 1.532 0 00-1.51-.933 1.448 1.448 0 00-1.44 1.483c0 .9.66 1.267 1.42 1.625a1.454 1.454 0 011.1 1.133 1.118 1.118 0 01-.22.692 1.077 1.077 0 01-.8.333 1.357 1.357 0 01-1.25-1.258l-.63.383a1.906 1.906 0 001.88 1.575 1.718 1.718 0 001.3-.55 1.7 1.7 0 00.45-1.191 1.929 1.929 0 00-1.39-1.675c-.61-.309-1.12-.55-1.12-1.125a.707.707 0 01.7-.725.956.956 0 01.92.616zm-85.64 9.55l-2.02 5.833h.74l.51-1.558h2.24l.51 1.558h.74l-2.02-5.833h-.7zm.35.95l.88 2.625H1.48zm8.53-.083a1.538 1.538 0 00-1.52-.934 1.447 1.447 0 00-1.43 1.484c0 .9.66 1.266 1.42 1.625a1.466 1.466 0 011.1 1.133 1.123 1.123 0 01-.23.692 1.043 1.043 0 01-.79.333 1.35 1.35 0 01-1.25-1.258l-.63.383a1.9 1.9 0 001.88 1.575 1.705 1.705 0 001.75-1.742 1.931 1.931 0 00-1.39-1.675c-.62-.308-1.13-.55-1.13-1.125a.714.714 0 01.7-.725.969.969 0 01.93.617zm1.45-.867v5.833h3.43v-.7h-2.7v-2.058h2.12v-.7h-2.12v-1.675h2.62v-.7h-3.35zm7.83 5.833h.87l-1.74-2.8a1.425 1.425 0 001.22-1.491 1.518 1.518 0 00-1.72-1.542h-1.94v5.833h.73v-2.75h.88zm-1.35-5.133a.847.847 0 110 1.683h-1.23v-1.683h1.23zm6.4-.7l-1.6 4.792-1.6-4.792h-.77l2.01 5.833h.73L26 10.478h-.78zm1.67 0v5.833h.73v-5.833h-.73zm5.77 0v4.558l-2.63-4.558h-.86v5.833h.74v-4.542l2.63 4.541h.86v-5.833h-.74zm4.96 3.592h1.26a1.551 1.551 0 01-1.61 1.608c-1.07 0-1.87-.775-1.87-2.283s.8-2.284 1.87-2.284a1.607 1.607 0 011.58 1.275l.71-.208a2.217 2.217 0 00-2.29-1.767 2.657 2.657 0 00-2.63 2.984c0 2.025 1.27 2.983 2.6 2.983a1.834 1.834 0 001.64-.867l.07.8h.63v-2.942h-1.96v.7zm8.58-2.725a1.556 1.556 0 00-1.52-.934 1.44 1.44 0 00-1.43 1.484 1.834 1.834 0 001.41 1.625 1.451 1.451 0 011.1 1.133 1.118 1.118 0 01-.22.692 1.058 1.058 0 01-.79.333 1.35 1.35 0 01-1.25-1.258l-.64.383a1.91 1.91 0 001.89 1.575 1.705 1.705 0 001.75-1.742 1.941 1.941 0 00-1.4-1.675c-.61-.308-1.12-.55-1.12-1.125a.707.707 0 01.7-.725.957.957 0 01.92.617zm1.32 2.983a2.045 2.045 0 104.09 0v-3.85h-.74v3.9a1.305 1.305 0 01-2.61 0v-3.9h-.74v3.85zm8.24-.258h1.25a1.543 1.543 0 01-1.6 1.608c-1.08 0-1.88-.775-1.88-2.283s.8-2.284 1.88-2.284a1.623 1.623 0 011.58 1.275l.71-.208a2.224 2.224 0 00-2.29-1.767 2.664 2.664 0 00-2.64 2.984c0 2.025 1.28 2.983 2.6 2.983a1.822 1.822 0 001.64-.867l.08.8h.62v-2.942h-1.95v.7zm5.98 0H63a1.551 1.551 0 01-1.61 1.608c-1.07 0-1.87-.775-1.87-2.283s.8-2.284 1.87-2.284a1.607 1.607 0 011.58 1.275l.71-.208a2.217 2.217 0 00-2.29-1.767 2.657 2.657 0 00-2.63 2.984c0 2.025 1.27 2.983 2.6 2.983a1.834 1.834 0 001.64-.867l.07.8h.63v-2.942h-1.96v.7zm3.36-3.592v5.833h3.44v-.7h-2.7v-2.058h2.11v-.7h-2.11v-1.675h2.61v-.7H65.1zm7.49.867a1.547 1.547 0 00-1.52-.934 1.44 1.44 0 00-1.43 1.484 1.847 1.847 0 001.41 1.625 1.451 1.451 0 011.1 1.133 1.118 1.118 0 01-.22.692 1.043 1.043 0 01-.79.333 1.35 1.35 0 01-1.25-1.258l-.64.383a1.918 1.918 0 001.89 1.575 1.705 1.705 0 001.75-1.742 1.945 1.945 0 00-1.39-1.675c-.62-.308-1.13-.55-1.13-1.125a.707.707 0 01.7-.725.977.977 0 01.93.617zm.83-.167h1.69v5.133h.73v-5.133h1.68v-.7h-4.1v.7zm5.02-.7v5.833h.73v-5.833h-.73zm4.59-.067a3.01 3.01 0 102.61 2.984 2.675 2.675 0 00-2.61-2.984zm0 .7c1.03 0 1.85.759 1.85 2.284s-.82 2.283-1.85 2.283-1.86-.758-1.86-2.283.82-2.284 1.86-2.284zm7.34-.633v4.558l-2.63-4.558h-.86v5.833h.74v-4.542l2.63 4.541h.86v-5.833h-.74zm2.21 5.342a.525.525 0 10.53-.525.517.517 0 00-.53.525z" fill="#002855" fill-rule="evenodd"/></svg></svg>