<svg width="37" height="15" xmlns="http://www.w3.org/2000/svg" xmlns:xlink="http://www.w3.org/1999/xlink"><svg width="36.97" height="14.28" viewBox="-1 -1 36.97 14.28" xmlns="http://www.w3.org/2000/svg"><path data-name="SERVING SUGGESTION" d="M2.406.661a1.109 1.109 0 00-1.092-.672A1.04 1.04 0 00.282 1.057a1.327 1.327 0 001.02 1.17 1.05 1.05 0 01.792.816.8.8 0 01-.162.5.755.755 0 01-.57.24.973.973 0 01-.9-.906l-.456.276a1.373 1.373 0 001.356 1.134 1.228 1.228 0 001.26-1.254 1.392 1.392 0 00-1-1.206 1.046 1.046 0 01-.81-.81.511.511 0 01.5-.522.7.7 0 01.666.444zM3.474.037v4.2h2.472v-.5h-1.94V2.252H5.53v-.5H4.006V.541H5.89v-.5H3.476zm5.667 4.2h.624L8.511 2.221a1.025 1.025 0 00.876-1.074A1.09 1.09 0 008.151.037h-1.4v4.2h.528v-1.98h.63zm-.978-3.7a.61.61 0 110 1.212h-.882V.541h.882zm4.64-.5l-1.153 3.45-1.152-3.45H9.94l1.446 4.2h.529l1.446-4.2h-.555zm1.224 0v4.2h.528v-4.2h-.528zm4.182 0v3.282l-1.9-3.282h-.613v4.2h.528V.967l1.9 3.27h.618v-4.2h-.528zm3.592 2.586h.905a1.116 1.116 0 01-1.158 1.158 1.4 1.4 0 01-1.35-1.644 1.4 1.4 0 011.35-1.644 1.166 1.166 0 011.14.918l.51-.15a1.6 1.6 0 00-1.65-1.272 1.915 1.915 0 00-1.9 2.148 1.911 1.911 0 001.872 2.148 1.318 1.318 0 001.182-.624l.054.576h.45V2.119h-1.4v.5zM2.406 8.661a1.109 1.109 0 00-1.092-.672A1.04 1.04 0 00.282 9.057a1.327 1.327 0 001.02 1.17 1.05 1.05 0 01.792.816.8.8 0 01-.162.5.755.755 0 01-.57.24.973.973 0 01-.9-.906l-.456.276a1.373 1.373 0 001.356 1.134 1.228 1.228 0 001.26-1.254 1.392 1.392 0 00-1-1.206 1.046 1.046 0 01-.81-.81.511.511 0 01.5-.522.7.7 0 01.666.444zm.983 2.151a1.47 1.47 0 102.94 0V8.037h-.523v2.808a.942.942 0 01-1.884 0V8.037h-.528v2.775zm5.949-.186h.906a1.116 1.116 0 01-1.158 1.158 1.4 1.4 0 01-1.35-1.644 1.4 1.4 0 011.35-1.644 1.166 1.166 0 011.14.918l.51-.15a1.6 1.6 0 00-1.65-1.272 1.915 1.915 0 00-1.9 2.148 1.911 1.911 0 001.872 2.148 1.318 1.318 0 001.182-.624l.054.576h.45v-2.12h-1.41v.5zm4.334 0h.906a1.116 1.116 0 01-1.159 1.158 1.4 1.4 0 01-1.35-1.644 1.4 1.4 0 011.35-1.644 1.166 1.166 0 011.141.918l.51-.15a1.6 1.6 0 00-1.651-1.272 1.915 1.915 0 00-1.9 2.148 1.911 1.911 0 001.872 2.148 1.318 1.318 0 001.183-.624l.054.576h.45v-2.12h-1.41v.5zm2.445-2.586v4.2h2.472v-.5h-1.944v-1.488h1.524v-.5h-1.524V8.541h1.884v-.5h-2.412zm5.413.624a1.109 1.109 0 00-1.092-.672 1.04 1.04 0 00-1.032 1.065 1.327 1.327 0 001.02 1.17 1.05 1.05 0 01.792.816.8.8 0 01-.162.5.755.755 0 01-.57.24.973.973 0 01-.9-.906l-.456.276a1.373 1.373 0 001.356 1.134 1.228 1.228 0 001.26-1.254 1.392 1.392 0 00-1-1.206 1.046 1.046 0 01-.81-.81.511.511 0 01.5-.522.7.7 0 01.666.444zm.625-.12h1.212v3.7h.528v-3.7h1.211v-.5h-2.952v.5zm3.636-.5v4.2h.528v-4.2h-.528zm3.327-.048a1.927 1.927 0 00-1.884 2.148 1.9 1.9 0 103.768 0 1.927 1.927 0 00-1.884-2.155zm0 .5a1.4 1.4 0 011.338 1.644 1.366 1.366 0 11-2.676 0 1.4 1.4 0 011.338-1.647zm5.315-.456v3.282l-1.9-3.282h-.618v4.2h.528V8.97l1.9 3.27h.618v-4.2h-.528z" fill="#002855" fill-rule="evenodd"/></svg></svg>