<svg width="139" height="86" xmlns="http://www.w3.org/2000/svg" xmlns:xlink="http://www.w3.org/1999/xlink"><svg width="138.28" height="41.59" viewBox="-1 -1 138.28 41.59" xmlns="http://www.w3.org/2000/svg"><path d="M13.52 15.606v-7.78H7.878v2.38h2.865a3.261 3.261 0 01-3.46 2.931c-2.578 0-4.364-1.719-4.364-5.245 0-3.438 1.807-5.245 4.43-5.245 1.741 0 3 .97 3.791 2.909l2.623-.683A6.33 6.33 0 007.35.003a7.166 7.166 0 00-5.2 2.072A7.72 7.72 0 00.006 7.897a7.859 7.859 0 002.072 5.818 6.851 6.851 0 005.047 2.072 4.2 4.2 0 003.747-1.829l.246 1.648h2.4zm3.648-1.433a5.362 5.362 0 004.121 1.609 5.363 5.363 0 004.117-1.604 6.315 6.315 0 000-8.22 5.377 5.377 0 00-4.121-1.631 5.377 5.377 0 00-4.121 1.631 6.315 6.315 0 00.003 8.22zm2.094-6.523a2.568 2.568 0 014.055 0 3.767 3.767 0 01.749 2.4 3.874 3.874 0 01-.749 2.424 2.6 2.6 0 01-4.055 0 3.874 3.874 0 01-.749-2.424 3.767 3.767 0 01.748-2.395zm10.678 6.523a5.363 5.363 0 004.121 1.609 5.362 5.362 0 004.121-1.609 6.315 6.315 0 000-8.22 5.377 5.377 0 00-4.121-1.631 5.377 5.377 0 00-4.121 1.631 6.315 6.315 0 00-.002 8.225zm2.094-6.523a2.568 2.568 0 014.055 0 3.767 3.767 0 01.749 2.4 3.874 3.874 0 01-.749 2.424 2.6 2.6 0 01-4.055 0 3.874 3.874 0 01-.749-2.424 3.767 3.767 0 01.747-2.395zm14.281-3.328c-3.262 0-5.069 2.226-5.069 5.73s1.807 5.73 5.069 5.73a3.212 3.212 0 002.691-1.318v1.142h2.733V.006h-2.733v5.509a3.668 3.668 0 00-2.693-1.188zm-1.479 3.244a2.3 2.3 0 011.851-.9 2.225 2.225 0 011.829.9 3.812 3.812 0 01.727 2.49 3.878 3.878 0 01-.727 2.512 2.2 2.2 0 01-1.829.882 2.3 2.3 0 01-1.851-.9 3.853 3.853 0 01-.727-2.49 3.853 3.853 0 01.727-2.494zm9.761 8.04h2.733v-4.43c0-2.8 1.124-4.518 2.534-4.518 1.058 0 1.587.617 1.587 1.829v7.119h2.733V7.677a3.11 3.11 0 00-3.416-3.35 4.064 4.064 0 00-3.438 1.961V4.506h-2.733v11.1zm22.166-5.8a6.183 6.183 0 00-1.19-3.636 4.763 4.763 0 00-3.989-1.851c-3.813 0-5.333 3.085-5.333 5.73s1.521 5.73 5.333 5.73a5.074 5.074 0 005.047-3.24l-2.2-.815a3.015 3.015 0 01-2.689 1.719 2.551 2.551 0 01-2.623-2.512h7.647V9.814zm-5.179-3.151a2.305 2.305 0 012.38 2.116h-4.782a2.429 2.429 0 012.403-2.108zm10.753-2.336a3.529 3.529 0 00-2.556.948 3.13 3.13 0 001.256 5.289c.419.176 1.19.419 1.565.595a3.71 3.71 0 01.617.264.893.893 0 01.595.837 1.139 1.139 0 01-1.366 1.19 2.341 2.341 0 01-2.226-1.829l-2.182 1.168a5.142 5.142 0 001.653 2.094 4.4 4.4 0 002.755.9 3.838 3.838 0 002.843-1.08 3.562 3.562 0 001.1-2.623 2.827 2.827 0 00-.683-1.807 2.45 2.45 0 00-.792-.559 7.478 7.478 0 00-.793-.419l-.948-.331-.793-.286a1.277 1.277 0 01-1.058-1.08.927.927 0 011.014-.926 2.3 2.3 0 011.851.97l1.631-1.5a4.147 4.147 0 00-3.483-1.807zm9.728 0a3.532 3.532 0 00-2.557.948 3.131 3.131 0 001.257 5.289c.418.176 1.19.419 1.564.595a3.677 3.677 0 01.617.264.892.892 0 01.595.837 1.139 1.139 0 01-1.366 1.19 2.341 2.341 0 01-2.226-1.829l-2.181 1.168a5.144 5.144 0 001.652 2.094 4.4 4.4 0 002.755.9 3.838 3.838 0 002.843-1.08 3.564 3.564 0 001.1-2.623 2.83 2.83 0 00-.683-1.807 2.448 2.448 0 00-.794-.573 7.451 7.451 0 00-.793-.419l-.948-.331-.793-.286a1.277 1.277 0 01-1.058-1.08.927.927 0 011.014-.926 2.3 2.3 0 011.851.97l1.631-1.5a4.147 4.147 0 00-3.48-1.793zm14.523 10.587l-1.917 5.2h2.644l5.73-15.6h-2.733l-2.424 6.964-2.582-6.964h-2.755zm8.273-.727a6.082 6.082 0 008.242 0 6.314 6.314 0 000-8.22 6.022 6.022 0 00-8.242 0 6.314 6.314 0 000 8.219zm2.094-6.523a2.568 2.568 0 014.055 0 3.767 3.767 0 01.749 2.4 3.873 3.873 0 01-.749 2.424 2.6 2.6 0 01-4.055 0 3.874 3.874 0 01-.75-2.424 3.767 3.767 0 01.75-2.401zm19.323-3.15h-2.733v4.43c0 2.8-1.124 4.518-2.534 4.518-1.058 0-1.587-.617-1.587-1.829V4.506h-2.733v7.934a3.111 3.111 0 003.416 3.35 4.062 4.062 0 003.438-1.961v1.777h2.733v-11.1zM29.206 35.423a2.835 2.835 0 01-2.6 1.829c-1.675 0-2.556-1.366-2.556-3.394s.881-3.394 2.556-3.394a2.835 2.835 0 012.6 1.829l2.446-.992a4.932 4.932 0 00-5.046-3.172 5.039 5.039 0 00-4.011 1.631 6.662 6.662 0 000 8.2 5.039 5.039 0 004.011 1.628 4.932 4.932 0 005.047-3.174zm6.519-3.68a1.806 1.806 0 011.917-1.278c1.3 0 1.939.551 1.939 1.631v.485h-1.85c-2.821 0-4.738 1.433-4.738 3.636a3.158 3.158 0 003.372 3.372 4.192 4.192 0 003.416-1.583l.287 1.41h2.248v-6.637c0-3.107-1.565-4.65-4.672-4.65a3.994 3.994 0 00-4.231 3.085zm.132 4.43c0-.948.639-1.432 1.9-1.432h1.829v.22a2.006 2.006 0 01-.793 1.653 2.727 2.727 0 01-1.785.639 1.06 1.06 0 01-1.15-1.08zm9.023 3.24h2.733v-4.43c0-2.8 1.124-4.518 2.534-4.518 1.058 0 1.587.617 1.587 1.829v7.118h2.733v-7.934a3.11 3.11 0 00-3.416-3.35 4.063 4.063 0 00-3.438 1.961v-1.783H44.88v11.106zm24-2.424a2.215 2.215 0 01-1.058.264c-.97 0-1.454-.485-1.454-1.807v-4.8h2.931v-2.34h-2.931v-4.5l-2.733 1.719v2.781h-1.719v2.336h1.719v4.848c0 2.711 1.521 4.1 4.077 4.1a4.238 4.238 0 001.807-.4zm4.357-5.245a1.806 1.806 0 011.917-1.278c1.3 0 1.939.551 1.939 1.631v.485h-1.85c-2.821 0-4.738 1.433-4.738 3.636a3.158 3.158 0 003.372 3.372 4.192 4.192 0 003.415-1.584l.287 1.41h2.248v-6.637c0-3.107-1.565-4.65-4.672-4.65a3.994 3.994 0 00-4.231 3.085zm.132 4.43c0-.948.639-1.432 1.9-1.432h1.829v.22a2.006 2.006 0 01-.793 1.653 2.726 2.726 0 01-1.785.639 1.06 1.06 0 01-1.151-1.081zm12.273-8.044a3.529 3.529 0 00-2.556.948 3.13 3.13 0 001.256 5.289c.419.176 1.19.419 1.565.595a3.712 3.712 0 01.617.264.893.893 0 01.6.837 1.139 1.139 0 01-1.366 1.19 2.341 2.341 0 01-2.226-1.829l-2.182 1.168a5.141 5.141 0 001.653 2.094 4.4 4.4 0 002.755.9 3.838 3.838 0 002.838-1.08 3.562 3.562 0 001.1-2.623 2.827 2.827 0 00-.683-1.807 2.453 2.453 0 00-.793-.573 7.5 7.5 0 00-.793-.419l-.948-.331-.793-.287a1.277 1.277 0 01-1.058-1.08.927.927 0 011.014-.926 2.3 2.3 0 011.851.97l1.631-1.5a4.147 4.147 0 00-3.482-1.801zm11.912 8.859a2.213 2.213 0 01-1.058.264c-.969 0-1.454-.485-1.454-1.807v-4.8h2.931v-2.34h-2.931v-4.5l-2.736 1.722v2.778h-1.719v2.336h1.719v4.848c0 2.711 1.521 4.1 4.077 4.1a4.238 4.238 0 001.807-.4zm11.993-3.372a6.179 6.179 0 00-1.19-3.636 4.761 4.761 0 00-3.988-1.851c-3.813 0-5.334 3.085-5.334 5.73s1.521 5.73 5.334 5.73a5.073 5.073 0 005.046-3.24l-2.2-.815a3.014 3.014 0 01-2.688 1.719 2.551 2.551 0 01-2.623-2.512h7.647v-1.126zm-5.178-3.151a2.305 2.305 0 012.38 2.116h-4.783a2.43 2.43 0 012.403-2.117zm7.451 8.551a1.87 1.87 0 100-2.644 1.916 1.916 0 000 2.642z" fill="#002855" fill-rule="evenodd"/></svg><svg width="136.91" height="35.22" viewBox="-1 -1 136.91 35.22" y="41.59" xmlns="http://www.w3.org/2000/svg"><path data-name="No artifical flavors or preservatives." d="M6.53 8.142L2.26.466H-.01v11.631h2.16V4.425l4.27 7.677h2.27V.466H6.53v7.676zm5.23 2.875a4.581 4.581 0 006.21 0 4.751 4.751 0 000-6.2 4.537 4.537 0 00-6.21 0 4.751 4.751 0 000 6.2zm1.58-4.919a1.813 1.813 0 011.53-.747 1.839 1.839 0 011.53.747 2.852 2.852 0 01.56 1.812 2.929 2.929 0 01-.56 1.827 1.868 1.868 0 01-1.53.731 1.841 1.841 0 01-1.53-.731 2.935 2.935 0 01-.57-1.827 2.858 2.858 0 01.57-1.812zm13.31.216a1.348 1.348 0 011.44-.963 1.2 1.2 0 011.46 1.229v.366h-1.39c-2.13 0-3.57 1.08-3.57 2.741a2.379 2.379 0 002.54 2.543 3.143 3.143 0 002.57-1.2l.22 1.064h1.69v-5c0-2.342-1.17-3.505-3.52-3.505a3.012 3.012 0 00-3.19 2.326zm.1 3.34c0-.714.48-1.08 1.43-1.08h1.37v.166a1.5 1.5 0 01-.59 1.246 2.071 2.071 0 01-1.35.482.794.794 0 01-.86-.814zm8.92-.532c0-2.542.93-3.688 2.25-3.688a1.688 1.688 0 01.86.232l.38-1.91a3.265 3.265 0 00-1.01-.166 2.96 2.96 0 00-2.48 1.5V3.725h-2.06V12.1h2.06V9.125zm9.46 1.147a1.687 1.687 0 01-.8.2c-.73 0-1.09-.365-1.09-1.362V5.485h2.21v-1.76h-2.21V.336l-2.07 1.3v2.089h-1.29v1.762h1.29v3.655a2.785 2.785 0 003.08 3.091 3.176 3.176 0 001.36-.3zm1.83-8.009a1.338 1.338 0 100-1.894 1.349 1.349 0 000 1.894zm-.08 9.837h2.06V3.725h-2.06V12.1zm4.45-6.613v6.613h2.06V5.484h1.76V3.725h-1.76v-.581a.882.882 0 01.95-1.047 2.662 2.662 0 01.99.233l.45-1.662a3.326 3.326 0 00-1.56-.332 2.634 2.634 0 00-2.89 2.957v.432h-1.06v1.762h1.06zm5.75-3.224a1.338 1.338 0 100-1.894 1.349 1.349 0 000 1.894zm-.09 9.837h2.06V3.725h-2.06V12.1zm9.66-3.008a2.135 2.135 0 01-1.96 1.379c-1.26 0-1.93-1.03-1.93-2.558s.67-2.559 1.93-2.559a2.135 2.135 0 011.96 1.379l1.85-.748a3.73 3.73 0 00-3.81-2.392 3.789 3.789 0 00-3.02 1.229 5 5 0 000 6.181 3.789 3.789 0 003.02 1.23 3.731 3.731 0 003.81-2.393zm4.98-2.775a1.348 1.348 0 011.44-.963 1.2 1.2 0 011.46 1.229v.366h-1.39c-2.13 0-3.57 1.08-3.57 2.741a2.379 2.379 0 002.54 2.543 3.143 3.143 0 002.57-1.2l.22 1.064h1.69v-5c0-2.342-1.17-3.505-3.52-3.505a3.012 3.012 0 00-3.19 2.326zm.1 3.34c0-.714.48-1.08 1.43-1.08h1.37v.166a1.5 1.5 0 01-.59 1.246 2.071 2.071 0 01-1.35.482.794.794 0 01-.86-.814zm6.85 2.443h2.06V.333h-2.06v11.764zm9.04-6.613v6.613h2.06V5.484h1.76V3.725h-1.76v-.581a.886.886 0 01.95-1.047 2.62 2.62 0 01.99.233l.45-1.662a3.326 3.326 0 00-1.56-.332 2.639 2.639 0 00-2.89 2.957v.432h-1.06v1.762h1.06zm5.6 6.613h2.06V.333h-2.06v11.764zm5.74-5.783a1.356 1.356 0 011.44-.963 1.207 1.207 0 011.47 1.229v.366h-1.4c-2.13 0-3.57 1.08-3.57 2.741a2.379 2.379 0 002.54 2.543 3.176 3.176 0 002.58-1.2l.21 1.064h1.7v-5c0-2.342-1.18-3.505-3.53-3.505a3.02 3.02 0 00-3.19 2.326zm.1 3.34c0-.714.48-1.08 1.43-1.08h1.38v.166a1.509 1.509 0 01-.6 1.246 2.052 2.052 0 01-1.35.482.794.794 0 01-.86-.814zm8.35 2.443h1.86l2.84-8.375h-2.08l-1.69 5.832-1.7-5.832h-2.08zm6.19-1.08a4.593 4.593 0 006.22 0 4.782 4.782 0 000-6.2 4.549 4.549 0 00-6.22 0 4.782 4.782 0 000 6.2zm1.58-4.919a1.94 1.94 0 013.06 0 2.852 2.852 0 01.56 1.812 2.929 2.929 0 01-.56 1.827 1.967 1.967 0 01-3.06 0 2.929 2.929 0 01-.56-1.827 2.852 2.852 0 01.56-1.812zm9.56 3.024c0-2.542.93-3.688 2.24-3.688a1.661 1.661 0 01.86.232l.39-1.91a3.325 3.325 0 00-1.02-.166 2.931 2.931 0 00-2.47 1.5V3.725h-2.06V12.1h2.06V9.125zm7.1-5.532a2.67 2.67 0 00-1.93.714 2.357 2.357 0 00.95 3.988c.31.133.89.315 1.18.448a2.776 2.776 0 01.46.2.667.667 0 01.45.631.859.859 0 01-1.03.9 1.774 1.774 0 01-1.68-1.379l-1.64.881a3.875 3.875 0 001.24 1.578 3.337 3.337 0 002.08.682 2.872 2.872 0 002.14-.815 2.687 2.687 0 00.84-1.977 2.128 2.128 0 00-.52-1.362 1.917 1.917 0 00-.6-.432 4.58 4.58 0 00-.6-.316l-.71-.249-.6-.216a.968.968 0 01-.8-.814.7.7 0 01.77-.7 1.719 1.719 0 011.39.731l1.23-1.13a3.119 3.119 0 00-2.62-1.363zM6.51 28.74a4.583 4.583 0 006.21 0 4.357 4.357 0 001.15-3.108 4.314 4.314 0 00-1.15-3.09 4.534 4.534 0 00-6.21 0 4.314 4.314 0 00-1.15 3.09 4.357 4.357 0 001.15 3.108zm1.58-4.919a1.93 1.93 0 013.05 0 2.8 2.8 0 01.57 1.811 2.876 2.876 0 01-.57 1.828 1.956 1.956 0 01-3.05 0 2.876 2.876 0 01-.57-1.828 2.8 2.8 0 01.57-1.807zm9.55 3.024c0-2.542.93-3.688 2.25-3.688a1.688 1.688 0 01.86.232l.38-1.91a3.268 3.268 0 00-1.01-.167 2.961 2.961 0 00-2.48 1.5v-1.367h-2.06v8.38h2.06v-2.98zm13.16 3.107c2.46 0 3.82-1.678 3.82-4.32s-1.36-4.32-3.82-4.32a2.432 2.432 0 00-2.03 1v-.867h-2.06v11.764h2.06v-4.154a2.793 2.793 0 002.03.897zm1.11-2.442a1.783 1.783 0 01-2.79.017 3.017 3.017 0 01-.53-1.895 2.963 2.963 0 01.53-1.877 1.737 1.737 0 011.4-.681 1.718 1.718 0 011.39.681 3.48 3.48 0 010 3.755zm6.51-.665c0-2.542.93-3.688 2.25-3.688a1.688 1.688 0 01.86.232l.38-1.91a3.222 3.222 0 00-1.01-.167 2.961 2.961 0 00-2.48 1.5v-1.367h-2.06v8.38h2.06v-2.98zm11.92-1.4a4.712 4.712 0 00-.89-2.742 3.6 3.6 0 00-3.01-1.4c-2.88 0-4.02 2.327-4.02 4.32s1.14 4.32 4.02 4.32a3.814 3.814 0 003.8-2.442l-1.66-.615a2.273 2.273 0 01-2.02 1.3 1.923 1.923 0 01-1.98-1.894h5.76v-.847zm-3.9-2.376a1.734 1.734 0 011.79 1.595h-3.6a1.83 1.83 0 011.81-1.59zm8.17-1.762a2.671 2.671 0 00-1.93.715 2.357 2.357 0 00.95 3.988c.31.133.9.315 1.18.448a2.776 2.776 0 01.46.2.667.667 0 01.45.631.859.859 0 01-1.03.9 1.774 1.774 0 01-1.68-1.379l-1.64.881a3.819 3.819 0 001.25 1.578 3.287 3.287 0 002.07.681 2.91 2.91 0 002.15-.814 2.716 2.716 0 00.83-1.977 2.128 2.128 0 00-.52-1.362 1.8 1.8 0 00-.6-.432 4.58 4.58 0 00-.6-.316l-.71-.249-.6-.216a.969.969 0 01-.8-.814.7.7 0 01.77-.7 1.719 1.719 0 011.39.731l1.23-1.13a3.12 3.12 0 00-2.62-1.359zm12.1 4.138a4.653 4.653 0 00-.9-2.742 3.6 3.6 0 00-3.01-1.4c-2.87 0-4.02 2.327-4.02 4.32s1.15 4.32 4.02 4.32a3.835 3.835 0 003.81-2.442l-1.66-.615a2.276 2.276 0 01-2.03 1.3 1.923 1.923 0 01-1.98-1.894h5.77v-.847zm-3.91-2.376a1.737 1.737 0 011.8 1.595h-3.61a1.83 1.83 0 011.81-1.59zm7.66 3.771c0-2.542.93-3.688 2.24-3.688a1.661 1.661 0 01.86.232l.39-1.91a3.328 3.328 0 00-1.02-.167 2.932 2.932 0 00-2.47 1.5v-1.362H68.4v8.38h2.06v-2.98zm6.95 2.975h1.86l2.84-8.375h-2.08l-1.69 5.832-1.7-5.832h-2.08zm7.11-5.783a1.367 1.367 0 011.45-.963 1.2 1.2 0 011.46 1.229v.366h-1.4c-2.12 0-3.57 1.08-3.57 2.741A2.383 2.383 0 0085 29.947a3.161 3.161 0 002.58-1.2l.22 1.064h1.69v-5c0-2.342-1.18-3.506-3.52-3.506a3.006 3.006 0 00-3.19 2.327zm.1 3.34c0-.714.48-1.08 1.43-1.08h1.38v.166a1.509 1.509 0 01-.6 1.246 2.044 2.044 0 01-1.34.482.8.8 0 01-.87-.809zm11.08.615a1.621 1.621 0 01-.79.2c-.73 0-1.1-.365-1.1-1.362v-3.622h2.21v-1.758h-2.21v-3.389l-2.06 1.3v2.093h-1.3v1.762h1.3v3.655a2.782 2.782 0 003.07 3.09 3.219 3.219 0 001.37-.3zm1.83-8.009a1.341 1.341 0 100-1.894 1.361 1.361 0 000 1.899zm-.08 9.837h2.06v-8.37h-2.06v8.38zm5.97 0h1.86l2.84-8.375h-2.07l-1.7 5.832-1.69-5.832h-2.08zm12.97-4.37a4.653 4.653 0 00-.9-2.742 3.6 3.6 0 00-3.01-1.4c-2.87 0-4.02 2.327-4.02 4.32s1.15 4.32 4.02 4.32a3.835 3.835 0 003.81-2.442l-1.66-.615a2.276 2.276 0 01-2.03 1.3 1.923 1.923 0 01-1.98-1.894h5.77v-.847zm-3.91-2.376a1.737 1.737 0 011.8 1.595h-3.61a1.83 1.83 0 011.81-1.59zm8.17-1.762a2.631 2.631 0 00-1.92.715 2.36 2.36 0 00.94 3.988c.32.133.9.315 1.18.448a2.869 2.869 0 01.47.2.682.682 0 01.45.631.859.859 0 01-1.03.9 1.765 1.765 0 01-1.68-1.379l-1.65.881a3.9 3.9 0 001.25 1.578 3.316 3.316 0 002.08.681 2.886 2.886 0 002.14-.814 2.678 2.678 0 00.83-1.977 2.124 2.124 0 00-.51-1.362 1.917 1.917 0 00-.6-.432 6.366 6.366 0 00-.6-.316l-.71-.249-.6-.216a.969.969 0 01-.8-.814.7.7 0 01.76-.7 1.736 1.736 0 011.4.731l1.23-1.13a3.125 3.125 0 00-2.63-1.359zm5.05 8.208a1.408 1.408 0 100-1.993 1.44 1.44 0 000 2.003z" fill="#002855" fill-rule="evenodd"/></svg><svg width="101.84" height="9.16" viewBox="-1 -1 101.84 9.16" y="76.81" xmlns="http://www.w3.org/2000/svg"><path d="M3.998 1.121a1.848 1.848 0 00-1.82-1.12 1.734 1.734 0 00-1.72 1.78c0 1.08.79 1.52 1.7 1.95a1.749 1.749 0 011.32 1.36 1.335 1.335 0 01-.27.831 1.259 1.259 0 01-.95.4 1.622 1.622 0 01-1.5-1.511l-.76.46a2.288 2.288 0 002.26 1.891 2.047 2.047 0 002.1-2.091c0-1.13-.88-1.61-1.67-2.01-.74-.37-1.35-.66-1.35-1.35a.851.851 0 01.84-.87 1.158 1.158 0 011.11.74zM5.71.081v7h4.12v-.84H6.59V3.77h2.54v-.84H6.59V.92h3.14V.08H5.71zm9.369 7h1.04l-2.09-3.361a1.709 1.709 0 001.46-1.79 1.816 1.816 0 00-2.06-1.85h-2.33v7h.88v-3.3h1.05zM13.449.92a1.016 1.016 0 110 2.02h-1.47V.92h1.47zm7.659-.84l-1.92 5.751L17.268.08h-.93l2.41 7h.88l2.41-7h-.93zm1.974 0v7h.88v-7h-.88zm6.9 0v5.47L26.822.08h-1.03v7h.88V1.629l3.16 5.451h1.03v-7h-.88zm5.921 4.31h1.51a1.86 1.86 0 01-1.93 1.931c-1.29 0-2.25-.931-2.25-2.741s.96-2.74 2.25-2.74a1.944 1.944 0 011.9 1.53l.85-.25A2.664 2.664 0 0035.483 0c-1.63 0-3.16 1.15-3.16 3.58s1.53 3.581 3.12 3.581a2.2 2.2 0 001.97-1.04l.09.96h.75V3.556h-2.35v.84zm10.29-3.27A1.848 1.848 0 0044.373 0a1.734 1.734 0 00-1.72 1.78c0 1.08.79 1.52 1.7 1.95a1.75 1.75 0 011.32 1.36 1.335 1.335 0 01-.27.831 1.26 1.26 0 01-.95.4 1.622 1.622 0 01-1.5-1.511l-.76.46a2.288 2.288 0 002.26 1.891 2.046 2.046 0 002.1-2.091c0-1.13-.88-1.61-1.67-2.01-.74-.37-1.35-.66-1.35-1.35a.851.851 0 01.84-.87 1.158 1.158 0 011.11.74zM47.76 4.7a2.45 2.45 0 104.9 0V.08h-.88v4.68a1.57 1.57 0 01-3.14 0V.08h-.88V4.7zm9.85-.31h1.51a1.86 1.86 0 01-1.93 1.931c-1.29 0-2.25-.931-2.25-2.741S55.9.84 57.19.84a1.944 1.944 0 011.9 1.53l.85-.25A2.665 2.665 0 0057.19 0c-1.63 0-3.16 1.15-3.16 3.58s1.53 3.581 3.12 3.581a2.2 2.2 0 001.97-1.04l.09.96h.75V3.556h-2.35v.84zm7.156 0h1.51a1.86 1.86 0 01-1.93 1.931c-1.29 0-2.25-.931-2.25-2.741s.96-2.74 2.25-2.74a1.944 1.944 0 011.9 1.53l.85-.25A2.665 2.665 0 0064.346 0c-1.63 0-3.16 1.15-3.16 3.58s1.53 3.581 3.12 3.581a2.2 2.2 0 001.97-1.04l.09.96h.75V3.556h-2.35v.84zm4.01-4.31v7h4.12v-.84h-3.24V3.769h2.54v-.84h-2.54V.919h3.14v-.84h-4.02zm8.952 1.04A1.848 1.848 0 0075.908 0a1.734 1.734 0 00-1.72 1.78c0 1.08.79 1.52 1.7 1.95a1.75 1.75 0 011.32 1.36 1.335 1.335 0 01-.27.831 1.259 1.259 0 01-.95.4 1.622 1.622 0 01-1.5-1.511l-.76.46a2.288 2.288 0 002.26 1.891 2.046 2.046 0 002.1-2.091c0-1.13-.88-1.61-1.67-2.01-.74-.37-1.35-.66-1.35-1.35a.851.851 0 01.84-.87 1.158 1.158 0 011.11.74zm.975-.2h2.02v6.161h.88V.92h2.02V.08h-4.92v.84zm5.992-.84v7h.88v-7h-.88zM90.174 0c-1.67 0-3.14 1.25-3.14 3.58s1.47 3.581 3.14 3.581 3.14-1.25 3.14-3.581S91.844.001 90.173.001zm0 .84c1.24 0 2.23.91 2.23 2.74s-.99 2.741-2.23 2.741-2.23-.911-2.23-2.741.989-2.739 2.229-2.739zm8.791-.76v5.47L95.805.08h-1.03v7h.88V1.629l3.16 5.451h1.029v-7h-.88z" fill="#002855" fill-rule="evenodd"/></svg></svg>